<?xml version="1.0" standalone="no"?>
<!DOCTYPE svg PUBLIC "-//W3C//DTD SVG 20010904//EN"
 "http://www.w3.org/TR/2001/REC-SVG-20010904/DTD/svg10.dtd">
<svg version="1.0" xmlns="http://www.w3.org/2000/svg"
 width="600.000000pt" height="600.000000pt" viewBox="0 0 600.000000 600.000000"
 preserveAspectRatio="xMidYMid meet">

<g transform="translate(0.000000,600.000000) scale(0.100000,-0.100000)"
fill="#000000" stroke="none">
<path d="M4780 4715 c0 -8 2 -15 4 -15 2 0 6 7 10 15 3 8 1 15 -4 15 -6 0 -10
-7 -10 -15z"/>
<path d="M4981 4727 c2 -1 13 -9 24 -17 19 -14 19 -14 6 3 -7 9 -18 17 -24 17
-6 0 -8 -1 -6 -3z"/>
<path d="M2679 4702 c19 -9 42 -30 51 -47 20 -36 38 -41 65 -20 19 15 19 16
-4 4 -22 -10 -27 -9 -40 11 -32 46 -61 70 -83 70 -20 0 -18 -3 11 -18z"/>
<path d="M4632 4708 c-7 -7 -12 -16 -12 -22 0 -6 5 -5 12 2 27 27 109 -5 123
-49 9 -29 -15 -45 -32 -22 -12 15 -18 11 -14 -10 1 -5 -3 -6 -9 -2 -5 3 -10
12 -10 20 0 8 -5 17 -11 21 -8 5 -10 -1 -5 -19 3 -14 2 -29 -4 -32 -5 -3 -10
-11 -10 -17 0 -7 6 -6 15 2 12 10 15 10 15 -2 0 -7 -20 -34 -45 -58 -37 -36
-45 -41 -46 -25 0 11 -9 -11 -19 -50 -21 -78 -18 -97 6 -40 35 85 126 166 231
205 l54 20 81 -20 c103 -27 162 -55 205 -98 33 -32 39 -53 12 -36 -20 12 -173
64 -177 60 -2 -2 12 -9 32 -16 19 -6 36 -15 38 -19 4 -10 98 -43 124 -43 42 0
81 -138 75 -262 -1 -15 -6 -17 -28 -11 -23 5 -25 4 -14 -9 8 -9 20 -16 27 -16
26 0 16 -125 -26 -330 -22 -107 -49 -224 -60 -260 -10 -36 -22 -78 -26 -93 -4
-20 -11 -26 -23 -23 -178 55 -413 109 -437 99 -7 -2 -27 3 -43 13 -17 10 -34
14 -38 10 -4 -5 -2 -11 5 -13 9 -4 10 -8 2 -18 -8 -10 -8 -15 1 -20 6 -4 14
-3 18 2 3 5 24 9 46 10 45 0 213 -25 230 -35 5 -3 15 -7 20 -9 57 -13 133 -35
147 -43 10 -6 27 -10 39 -10 18 0 21 -4 16 -28 -10 -49 -48 -142 -59 -142 -5
0 -22 7 -38 16 -17 11 -35 14 -46 10 -15 -6 -9 -12 34 -29 58 -24 58 -23 8
-101 -25 -39 -47 -59 -82 -77 -94 -45 -246 -34 -326 24 -39 28 -40 30 -23 43
22 16 37 14 43 -6 3 -9 -1 -11 -14 -6 -15 6 -17 5 -6 -5 9 -10 15 -10 24 -1 7
7 20 12 30 12 10 0 18 5 18 10 0 6 4 10 10 10 5 0 9 -3 9 -7 -1 -5 -1 -15 0
-23 1 -12 4 -12 12 3 5 9 15 17 22 17 8 0 8 -3 -1 -9 -20 -12 94 -41 152 -39
l49 2 -34 14 c-30 13 -52 18 -96 26 -25 4 -25 16 -3 34 13 11 33 18 44 17 12
-1 27 -3 35 -4 7 0 11 -7 7 -16 -3 -8 -1 -15 4 -15 6 0 10 5 10 10 0 6 6 10
14 10 8 0 16 6 19 13 4 10 7 10 18 0 11 -11 11 -13 -1 -13 -10 0 -11 -3 -3
-11 5 -5 22 -7 37 -3 28 7 36 24 10 24 -11 0 -14 5 -10 16 5 14 4 15 -8 5 -13
-11 -22 -10 -63 6 -27 10 -45 14 -83 18 -27 4 -30 3 -15 -4 20 -9 19 -10 -1
-10 -15 -1 -24 7 -28 22 -4 18 -13 22 -52 24 -26 1 -52 7 -58 13 -10 10 4 15
28 11 5 -1 6 5 2 14 -3 9 1 18 9 21 8 4 12 10 9 15 -6 11 4 11 31 -1 18 -8 18
-9 2 -9 -10 -1 -15 -6 -12 -11 4 -7 13 -6 26 1 11 5 25 8 32 5 9 -3 8 -5 -1
-5 -7 -1 -11 -5 -7 -11 3 -5 12 -7 19 -4 8 3 39 -2 71 -11 37 -11 60 -14 67
-7 11 11 -37 26 -52 17 -6 -4 -10 -2 -10 2 0 5 -41 19 -91 32 -71 19 -89 27
-84 39 4 12 3 13 -10 2 -20 -17 -119 6 -111 26 3 8 0 11 -8 8 -8 -3 -12 -14
-9 -25 4 -14 1 -18 -10 -13 -12 4 -14 1 -10 -15 4 -17 10 -20 31 -14 l26 6
-21 -22 c-13 -14 -27 -19 -39 -15 -14 4 -16 3 -5 -4 7 -5 11 -14 7 -20 -4 -6
2 -8 13 -5 17 4 19 0 16 -34 -1 -21 -1 -30 2 -20 2 9 11 17 20 17 13 0 13 -3
2 -17 -11 -15 -10 -14 9 1 19 17 22 17 22 3 0 -9 -9 -22 -20 -29 -24 -15 -26
-28 -5 -28 8 0 15 -5 15 -10 0 -7 -6 -7 -20 0 -11 6 -20 15 -20 21 0 6 -5 7
-10 4 -6 -4 -9 -12 -8 -18 3 -12 -4 -17 -20 -17 -5 0 -14 11 -20 25 -10 23 -9
25 11 26 20 0 19 2 -5 11 -30 10 -36 23 -15 31 7 3 4 6 -7 6 -15 1 -17 7 -14
31 3 17 2 33 -2 35 -4 3 -5 17 -3 32 2 16 5 44 7 63 2 19 13 62 26 95 12 33
22 68 23 78 1 9 4 17 8 17 12 0 2 207 -18 355 -21 167 -21 274 1 334 9 24 15
46 12 48 -10 10 -51 -129 -52 -177 -1 -30 -4 -62 -7 -70 -3 -8 -11 -41 -17
-73 -10 -49 -9 -62 4 -82 29 -44 10 -175 -25 -175 -9 0 -24 -10 -35 -21 -10
-12 -14 -20 -9 -17 6 2 24 11 41 18 32 14 54 54 54 101 1 23 1 23 15 5 11 -14
15 -46 15 -106 0 -99 -11 -168 -47 -294 -20 -69 -24 -103 -20 -149 4 -49 3
-57 -8 -46 -20 22 -35 78 -35 130 0 54 -13 64 -28 22 l-10 -28 -2 30 c-1 21
-3 25 -8 13 -10 -23 -37 -2 -56 43 -14 32 -15 32 -16 9 0 -37 47 -107 73 -106
16 1 23 -9 32 -44 6 -25 17 -56 24 -68 16 -29 11 -35 -23 -26 -17 4 -26 13
-26 26 0 17 -3 18 -14 9 -11 -10 -16 -8 -21 9 -5 16 -10 18 -20 10 -7 -6 -15
-7 -17 -3 -3 4 -3 2 -1 -5 1 -7 -6 -23 -17 -34 -12 -13 -18 -29 -14 -40 6 -19
-10 -25 -21 -8 -3 6 -11 10 -18 10 -8 0 -8 -3 1 -12 15 -15 16 -32 2 -23 -5 3
-10 1 -10 -5 0 -30 -106 -142 -127 -135 -7 2 -13 -3 -13 -11 0 -8 -5 -12 -11
-9 -6 4 -8 14 -5 22 3 8 1 11 -4 8 -6 -3 -13 1 -16 9 -3 9 -10 13 -15 10 -5
-3 -7 -9 -4 -14 3 -5 1 -11 -4 -14 -5 -4 -19 6 -30 20 -18 23 -21 24 -21 8 0
-11 9 -28 21 -37 17 -15 18 -21 7 -34 -7 -9 -11 -26 -10 -39 2 -13 -1 -24 -7
-24 -6 0 -11 6 -11 13 0 7 -10 14 -22 14 -13 1 -28 10 -35 19 -11 15 -13 15
-13 3 0 -18 41 -59 58 -59 27 0 9 -19 -20 -22 -36 -3 -88 11 -88 25 0 4 -4 5
-10 2 -5 -3 -10 -2 -10 4 0 19 23 24 36 7 7 -10 20 -16 31 -13 17 4 17 5 0 6
-10 0 -15 6 -12 11 3 6 -1 13 -9 16 -9 3 -16 15 -16 25 0 10 -4 19 -10 19 -5
0 -10 -7 -10 -15 0 -8 -4 -15 -10 -15 -19 0 -10 32 10 37 11 3 20 9 20 14 0
14 -11 11 -32 -8 -25 -23 -35 -8 -12 19 l19 22 -27 -17 c-27 -17 -28 -17 -28
1 0 10 5 23 10 30 7 9 7 9 -2 2 -20 -17 -29 -11 -17 11 8 15 8 19 0 15 -7 -4
-11 1 -11 13 0 12 -4 21 -9 21 -6 0 -9 9 -8 20 1 11 5 20 9 20 4 0 8 8 8 18 0
33 113 187 194 264 45 43 85 78 90 78 6 0 19 9 31 20 12 11 36 22 54 23 20 1
29 6 26 14 -2 7 8 19 23 27 41 23 14 18 -48 -7 -55 -23 -55 -23 -88 -4 -26 15
-38 17 -56 9 -14 -6 -28 -6 -39 0 -12 6 -24 4 -39 -6 -12 -9 -38 -16 -58 -16
-20 0 -46 -7 -58 -16 -13 -9 -30 -13 -40 -9 -14 6 -12 11 18 36 36 30 66 37
72 17 3 -9 6 -9 11 -1 4 7 -1 16 -11 22 -15 8 -29 4 -66 -19 -26 -17 -46 -37
-46 -47 0 -10 -29 -49 -63 -88 -90 -99 -115 -147 -128 -241 -7 -46 -19 -89
-29 -101 -15 -20 -21 -21 -59 -11 -31 8 -45 8 -54 -1 -6 -6 -27 -11 -46 -11
-20 0 -63 -7 -96 -14 -48 -12 -67 -22 -92 -52 -18 -20 -33 -43 -33 -49 0 -7
-9 -20 -20 -30 -19 -18 -20 -17 -20 3 0 12 -5 22 -11 22 -7 0 -5 10 5 25 9 14
14 31 10 38 -4 7 -4 9 0 5 4 -3 15 1 25 10 9 10 28 24 41 34 25 16 24 16 -27
14 -61 -3 -75 -13 -120 -83 -37 -58 -68 -82 -86 -64 -8 8 -5 11 12 11 20 0 22
4 20 35 -5 49 55 120 114 136 71 19 85 27 37 22 -64 -8 -90 -24 -153 -93 -58
-65 -59 -67 -41 -155 12 -64 14 -66 36 -54 15 8 17 13 8 19 -17 11 -4 29 34
46 17 7 23 13 14 14 -9 0 -30 -12 -47 -26 l-31 -26 0 25 c0 24 3 25 99 53 11
4 10 8 -5 18 -17 13 -17 14 8 9 24 -5 26 -8 17 -25 -8 -16 -7 -24 4 -35 13
-13 20 -13 50 -2 20 7 34 16 31 21 -3 4 2 5 10 2 9 -3 16 -1 16 5 0 15 21 13
45 -5 17 -13 18 -16 5 -24 -23 -15 -29 -12 -25 11 4 21 4 21 -15 4 -11 -10
-20 -26 -20 -35 0 -24 -63 -46 -165 -56 -11 -1 -37 -9 -57 -18 -21 -9 -42 -16
-48 -16 -6 0 -72 -23 -146 -51 -134 -50 -169 -58 -119 -25 21 14 25 24 25 69
0 60 8 97 21 97 5 0 7 -10 4 -23 -5 -20 -2 -22 27 -22 30 0 33 -2 30 -28 -2
-18 1 -26 7 -22 6 3 11 19 11 34 0 15 5 32 10 39 7 9 7 9 -2 2 -16 -14 -81
-13 -73 0 4 6 16 8 28 4 19 -6 20 -5 8 10 -9 11 -10 16 -2 16 7 0 9 5 5 11 -4
8 0 9 15 4 16 -5 20 -3 15 9 -3 9 -1 16 5 16 6 0 11 -5 11 -11 0 -6 8 -1 18
11 17 21 50 21 37 0 -3 -5 8 -5 24 0 16 4 33 5 37 2 4 -4 4 -2 0 5 -4 7 -14 9
-23 6 -11 -4 -14 -2 -11 8 3 9 16 13 34 12 26 -3 27 -2 8 6 -12 5 -25 15 -29
21 -6 9 -2 9 13 1 27 -14 48 9 33 37 -8 15 -2 29 34 74 44 56 68 68 148 68 33
0 36 15 5 24 -53 14 -75 6 -127 -44 -34 -33 -60 -50 -76 -50 -31 0 -33 17 -3
22 13 2 24 11 26 23 5 24 46 70 88 95 28 18 36 18 93 7 34 -7 60 -15 57 -18
-3 -2 39 -5 92 -5 65 0 84 2 57 6 l-40 7 43 2 c31 1 42 -3 42 -14 0 -9 10 -15
26 -15 14 0 33 -4 42 -9 9 -5 40 -12 67 -15 46 -7 49 -6 30 8 -11 8 -28 16
-37 16 -21 0 -22 4 -7 32 9 16 17 19 42 14 30 -5 31 -5 13 9 -17 13 -23 13
-40 2 -12 -8 -25 -24 -31 -35 -11 -26 -21 -28 -28 -7 -4 9 10 28 35 50 23 19
36 35 30 35 -17 0 -82 -60 -82 -76 0 -21 -6 -18 -54 34 -78 83 -89 102 -88
141 2 57 10 95 21 99 6 2 11 8 11 13 0 5 -9 4 -19 -3 -14 -8 -21 -28 -26 -70
-11 -89 -33 -68 -36 32 -1 44 -1 45 -9 12 -13 -54 7 -102 63 -160 51 -52 51
-53 22 -47 -126 28 -173 65 -211 169 -23 64 -22 79 5 54 11 -11 12 -9 3 8 -6
12 -9 24 -6 26 2 3 -2 18 -11 34 -25 47 -14 83 36 123 41 32 80 13 56 -26 -5
-8 -4 -13 2 -13 6 0 11 5 11 10 0 6 10 10 21 10 18 0 19 2 9 15 -18 22 -1 18
38 -7 18 -13 63 -67 99 -121 97 -144 193 -245 225 -235 6 2 -18 27 -55 54 -68
52 -78 64 -160 196 -50 80 -86 117 -137 139 -55 25 -35 34 100 45 47 4 79 9
72 12 -6 2 -9 8 -6 14 4 6 -3 5 -15 -2 -15 -7 -26 -8 -34 -2 -8 6 -21 6 -37
-1 -14 -5 -42 -9 -64 -9 -25 1 -48 -6 -64 -18 -13 -11 -33 -20 -42 -20 -26 0
-77 -82 -85 -136 -8 -54 7 -127 42 -202 32 -69 87 -106 184 -123 96 -17 89
-34 -12 -26 -158 12 -311 106 -296 183 2 15 -3 30 -14 40 -11 10 -19 23 -19
31 0 7 -4 13 -9 13 -16 0 0 72 26 120 26 49 172 213 206 232 12 7 57 15 99 18
60 5 85 12 117 33 24 16 41 35 40 45 -1 14 -2 14 -6 1 -7 -29 -76 -59 -137
-59 -64 0 -73 15 -29 49 14 12 24 24 21 26 -10 10 -58 -37 -58 -55 0 -12 -13
-26 -32 -36 -50 -26 -196 -182 -235 -251 -19 -35 -38 -61 -43 -58 -4 2 -13 26
-19 51 -13 50 -6 63 30 64 8 0 29 15 47 33 25 25 29 36 20 45 -17 17 6 62 32
62 11 0 38 7 60 16 31 12 40 22 40 39 0 13 -4 27 -10 30 -17 11 -11 35 9 35
24 0 61 45 61 74 0 11 -14 43 -31 69 -25 40 -33 46 -44 37 -8 -7 -26 -10 -40
-8 -30 6 -34 -8 -4 -17 12 -4 27 -1 37 9 16 14 20 10 47 -40 28 -51 29 -56 15
-82 -9 -15 -26 -29 -40 -31 -35 -4 -41 -21 -22 -54 16 -27 16 -29 -2 -43 -11
-8 -34 -14 -51 -14 -17 0 -41 -7 -53 -16 -28 -20 -28 -7 0 23 19 21 21 27 9
44 -14 24 -5 41 10 19 9 -13 10 -13 7 -1 -7 25 -27 24 -37 -1 -10 -23 -10 -23
-10 5 -1 38 26 47 51 18 20 -26 24 -20 7 10 -7 14 -19 19 -37 17 -20 -2 -27 2
-32 19 -3 12 -21 43 -40 69 -35 48 -44 61 -58 90 -4 9 -31 28 -59 44 -29 15
-49 30 -46 34 4 4 -1 4 -11 0 -16 -6 -11 -11 25 -29 39 -20 43 -27 45 -59 1
-30 -2 -36 -15 -30 -9 4 -45 9 -81 12 -40 3 -68 10 -73 18 -19 33 -57 10 -57
-34 0 -19 -63 -92 -80 -92 -6 0 -16 -12 -22 -27 -9 -22 -12 -24 -15 -10 -6 22
-23 12 -23 -13 0 -10 -12 -27 -27 -38 -25 -18 -38 -19 -128 -13 -106 8 -119
12 -148 47 -9 13 -27 24 -40 26 -12 2 -23 11 -25 22 -4 18 1 19 74 12 151 -13
213 -21 220 -29 4 -4 23 20 41 53 36 63 131 173 166 192 11 6 43 14 71 18 l51
8 -43 1 c-24 0 -53 -4 -65 -10 -52 -28 -119 -95 -165 -167 l-50 -78 -59 7
c-32 4 -67 8 -78 8 -33 2 -57 57 -53 126 4 70 24 91 58 60 22 -20 22 -20 41 4
10 13 19 31 19 40 0 16 39 61 52 61 10 0 3 -35 -9 -48 -7 -7 -13 -19 -13 -25
0 -7 12 1 26 16 14 16 32 26 39 23 7 -2 23 6 35 19 22 24 22 25 5 62 -47 99 4
203 63 128 19 -24 20 -24 37 -5 16 18 16 18 -2 14 -11 -3 -25 2 -32 10 -21 25
-68 20 -87 -9 -19 -29 -13 -99 13 -148 17 -34 6 -53 -37 -59 -29 -4 -29 -4
-24 36 l5 41 -20 -32 c-11 -17 -29 -37 -40 -43 -12 -6 -21 -21 -21 -33 0 -12
-5 -29 -10 -37 -8 -13 -13 -13 -39 3 -36 21 -59 13 -67 -22 -3 -14 -8 -33 -10
-42 -5 -17 7 -78 21 -111 6 -16 1 -18 -37 -18 -24 0 -49 5 -55 11 -8 8 -16 3
-28 -20 -18 -35 -13 -51 16 -51 33 0 61 -37 55 -73 -5 -25 -4 -27 3 -11 7 16
16 20 40 16 23 -3 31 -10 36 -33 8 -33 -6 -56 -42 -70 -18 -7 -23 -16 -23 -47
0 -31 -7 -44 -40 -75 -22 -20 -40 -41 -40 -47 0 -5 -4 -10 -10 -10 -5 0 -10 5
-10 10 0 6 -6 10 -13 10 -14 0 -68 54 -84 84 -7 12 -7 28 1 47 12 33 22 36 47
13 17 -15 20 -15 44 0 15 10 25 26 25 39 0 20 4 23 30 19 16 -2 30 0 30 4 0 5
-17 9 -38 9 -32 -1 -37 -4 -35 -22 3 -31 -23 -50 -48 -35 -10 7 -26 12 -34 12
-11 0 -15 13 -17 53 0 28 0 62 1 75 1 12 -3 22 -9 22 -6 0 -9 3 -7 8 8 13 -19
31 -34 22 -11 -7 -9 -14 10 -34 17 -19 25 -40 27 -78 l4 -53 -16 35 c-24 52
-52 79 -76 72 -21 -5 -21 -6 2 -14 20 -8 22 -11 10 -19 -11 -8 -10 -9 8 -4 16
5 22 2 22 -9 0 -9 4 -16 9 -16 7 0 41 -70 41 -85 0 -15 -17 -1 -33 26 -22 39
-35 31 -14 -8 9 -15 25 -49 37 -75 42 -91 185 -197 289 -214 22 -4 41 -9 41
-13 0 -3 10 -12 23 -20 20 -13 21 -13 8 2 -12 15 -11 17 6 17 26 0 63 -28 63
-47 0 -9 8 -21 17 -28 16 -12 16 -18 5 -66 -7 -30 -15 -66 -19 -81 -7 -37 -20
-36 -17 2 1 17 -2 30 -7 30 -5 0 -9 9 -9 19 0 11 -5 23 -11 27 -9 5 -10 -1 -4
-22 14 -58 17 -134 5 -149 -18 -22 -30 -18 -21 7 16 43 -28 198 -55 198 -16 0
-12 -12 12 -40 30 -37 40 -140 13 -140 -6 0 -5 8 1 21 7 11 9 23 7 26 -3 2
-11 -5 -17 -17 -6 -12 -14 -19 -17 -17 -2 3 1 16 8 29 12 22 11 23 -8 6 -24
-22 -37 -23 -29 -2 3 8 2 12 -4 9 -6 -4 -20 -3 -33 1 -21 7 -21 7 -2 16 17 7
16 8 -5 4 -27 -6 -110 37 -110 56 0 6 8 4 18 -5 23 -21 54 -23 46 -3 -3 8 -1
17 5 21 6 3 11 12 11 18 0 7 -9 1 -19 -12 -19 -24 -41 -22 -41 5 0 8 -7 14
-16 14 -9 0 -13 -5 -9 -12 4 -7 -1 -4 -9 6 -13 16 -13 22 -3 34 11 13 9 14
-13 1 -14 -8 -27 -15 -30 -17 -2 -2 2 -7 10 -12 8 -5 12 -12 9 -15 -17 -16
-272 178 -361 274 -95 102 -125 203 -77 261 11 14 17 18 13 10 -5 -10 0 -9 14
4 26 22 28 30 7 22 -22 -8 -18 2 5 14 11 6 20 7 19 3 -1 -4 -1 -17 0 -27 1
-18 2 -18 14 -4 6 8 23 18 37 21 24 6 24 5 6 -8 -14 -11 -16 -15 -5 -15 23 1
52 27 44 42 -4 7 6 -2 24 -20 33 -35 39 -35 19 0 -23 39 -38 52 -50 40 -12
-12 -38 -5 -38 10 0 5 9 6 20 3 12 -4 20 -2 20 5 0 6 15 17 33 25 19 8 39 21
47 29 7 9 17 16 22 16 5 0 2 -7 -6 -16 -21 -21 -21 -21 16 -16 28 4 30 3 25
-17 -4 -18 -3 -20 9 -10 8 6 14 20 14 30 0 10 4 20 9 24 16 10 22 -14 10 -37
-11 -21 -11 -22 4 -10 13 11 17 10 27 -8 6 -12 14 -20 16 -17 3 3 -4 21 -16
41 -22 41 -24 46 -12 46 5 0 13 -12 20 -27 10 -26 11 -25 7 15 -3 23 0 42 5
42 7 0 7 6 1 18 -5 9 -12 25 -15 35 -14 43 -101 -16 -89 -61 3 -13 1 -22 -6
-22 -6 0 -8 8 -4 18 3 10 -10 2 -33 -19 -21 -20 -65 -46 -97 -58 -78 -28 -118
-61 -150 -120 -45 -82 -31 -151 53 -252 30 -36 36 -49 27 -58 -9 -9 -8 -11 5
-6 11 5 48 -19 120 -77 106 -86 118 -100 97 -107 -6 -2 -9 1 -6 6 3 5 -11 8
-33 7 -29 -1 -40 2 -43 15 -3 11 -5 8 -6 -7 -2 -34 38 -48 90 -33 56 17 71 1
29 -29 -18 -13 -46 -26 -64 -30 l-31 -8 28 -1 c16 -1 46 11 71 28 l42 29 53
-34 c30 -18 59 -35 65 -37 6 -3 1 -16 -14 -33 l-25 -29 26 23 c24 21 59 22 59
3 0 -4 -24 -30 -52 -58 -29 -28 -60 -61 -68 -74 -27 -41 -103 -110 -116 -105
-8 3 -16 1 -19 -4 -11 -18 -64 -11 -77 9 -8 14 -17 17 -27 11 -43 -22 -113
-39 -141 -34 -37 8 -80 49 -87 86 -3 15 -10 28 -15 28 -9 0 -5 -18 13 -66 22
-59 99 -80 180 -47 33 13 46 14 60 5 27 -17 95 -15 135 4 21 10 59 48 94 94
67 85 141 146 168 135 36 -13 122 -70 122 -80 0 -6 5 -16 12 -23 9 -9 18 -3
38 30 81 132 90 268 22 315 -41 28 -82 44 -82 32 0 -6 -5 -7 -12 -3 -7 4 -28
9 -47 11 -61 7 -67 18 -19 36 127 49 222 11 249 -98 7 -30 7 -30 8 7 1 20 -3
40 -9 43 -5 3 -10 13 -10 21 0 22 52 -11 73 -45 17 -28 14 -98 -6 -135 -7 -15
-6 -18 7 -13 19 8 46 -18 46 -43 0 -22 -96 -124 -109 -116 -8 5 -24 -38 -35
-96 -8 -35 -90 -120 -143 -147 -23 -11 -59 -21 -80 -22 -35 0 -36 -1 -14 -10
18 -7 38 -5 70 6 l46 15 -25 -20 c-14 -11 -33 -20 -43 -20 -10 0 -15 -4 -12
-10 11 -18 24 -11 96 57 73 69 129 151 129 190 0 13 13 31 31 43 29 22 31 22
52 4 12 -11 25 -22 28 -27 3 -4 18 4 32 17 32 30 35 72 9 107 -11 13 -22 38
-26 54 -6 28 -5 29 9 11 8 -11 15 -24 15 -30 0 -5 3 -7 6 -4 3 4 -6 28 -20 54
-19 35 -23 52 -15 66 10 18 29 25 29 10 0 -4 -5 -13 -11 -19 -9 -9 -6 -19 10
-42 12 -17 36 -62 54 -100 l32 -69 -12 -173 c-21 -307 -15 -285 -81 -345 -49
-45 -58 -51 -65 -36 -5 9 -23 29 -40 45 -28 24 -29 27 -10 27 32 0 130 60 142
87 7 14 7 23 1 23 -6 0 -10 -7 -10 -15 0 -8 -21 -28 -47 -44 l-47 -29 -13 25
c-17 34 -18 33 22 33 30 0 38 6 60 41 34 52 27 81 -18 77 -36 -3 -85 -64 -67
-82 18 -18 11 -21 -37 -17 -39 3 -49 0 -64 -20 -27 -35 -23 -49 4 -15 21 26
25 28 48 16 47 -25 52 -56 10 -65 -37 -8 -94 18 -152 71 -58 53 -120 85 -184
96 -27 4 -54 8 -60 8 -92 -2 -138 -9 -153 -24 -10 -9 -30 -16 -44 -16 -16 0
-38 -13 -59 -36 -19 -20 -51 -53 -72 -74 -20 -21 -37 -43 -37 -49 0 -5 -9 -13
-20 -16 -23 -7 -54 -60 -45 -75 11 -18 25 -10 25 15 0 25 26 46 48 38 7 -3 12
4 12 17 0 36 19 62 41 55 14 -5 19 -2 19 14 0 11 14 37 32 56 25 29 36 35 56
30 18 -4 31 0 48 16 22 21 45 26 139 30 44 1 114 -19 165 -49 109 -63 260
-230 260 -287 0 -8 14 -40 31 -70 33 -60 40 -101 42 -290 2 -87 -2 -117 -15
-144 -10 -19 -18 -52 -18 -73 0 -51 -24 -98 -51 -98 -14 0 -19 -5 -16 -14 4
-9 -2 -17 -14 -21 -21 -7 -26 -31 -7 -37 14 -5 3 -38 -12 -38 -6 0 -8 5 -5 10
3 6 2 10 -4 10 -5 0 -18 3 -28 7 -17 6 -17 6 0 -14 18 -21 23 -53 7 -53 -5 0
-12 11 -16 25 -3 14 -10 23 -14 20 -9 -5 -7 -20 5 -48 10 -24 -1 -33 -20 -17
-19 16 -32 5 -16 -14 8 -9 8 -16 2 -20 -5 -4 -17 4 -25 16 -9 12 -19 19 -23
15 -3 -4 -1 -13 5 -19 16 -16 15 -29 -2 -22 -8 3 -19 18 -25 32 -8 24 -10 24
-10 6 -1 -12 6 -28 15 -35 34 -28 34 -79 1 -79 -6 0 -2 7 9 15 11 9 14 14 6
15 -21 0 -62 44 -72 76 -9 28 -10 28 -5 -6 3 -19 6 -44 6 -54 0 -11 5 -29 11
-40 11 -21 11 -21 -11 -2 -11 11 -21 29 -21 40 -1 20 -1 20 -11 3 -8 -14 -7
-23 5 -36 21 -23 20 -33 -1 -29 -24 4 -34 19 -27 40 3 10 0 26 -6 35 -10 17
-10 17 -9 -2 4 -64 0 -75 -32 -75 -24 0 -30 4 -27 17 2 10 11 17 21 17 19 -2
23 11 7 21 -6 4 -10 12 -9 18 1 7 -1 19 -4 27 -3 8 -8 24 -11 35 -3 11 -4 -5
-3 -35 2 -48 0 -55 -16 -53 -12 0 -16 -4 -13 -13 3 -8 -1 -14 -8 -14 -10 0
-15 23 -18 90 -2 51 -9 95 -16 102 -17 17 -15 33 3 18 13 -10 15 -9 15 11 0
14 -9 30 -21 37 -14 9 -19 20 -15 34 4 19 3 19 -10 7 -12 -12 -12 -24 -3 -69
6 -30 15 -75 20 -100 6 -30 6 -46 -1 -48 -5 -2 -10 -11 -10 -20 0 -9 -16 10
-35 42 -19 31 -52 77 -73 101 -48 54 -91 142 -144 294 -35 98 -40 125 -39 189
l1 75 -20 -26 c-22 -27 -23 -68 -3 -117 6 -14 27 -78 48 -142 41 -128 73 -203
113 -261 14 -20 22 -40 19 -44 -4 -3 3 -11 15 -17 24 -13 89 -103 86 -120 -1
-6 10 -31 24 -56 35 -59 47 -120 24 -120 -9 0 -16 4 -16 10 0 13 -90 -49 -97
-66 -4 -11 -9 -12 -18 -4 -9 8 -14 6 -18 -4 -4 -9 -21 -22 -40 -30 -19 -7 -41
-24 -50 -36 -15 -22 -35 -11 -21 12 5 9 2 9 -9 -1 -9 -7 -17 -19 -17 -26 0 -7
-25 -24 -56 -36 -31 -13 -51 -25 -46 -27 6 -2 33 8 61 22 54 28 61 30 61 18 0
-4 -20 -18 -45 -32 -25 -14 -45 -28 -45 -33 0 -9 8 -5 67 35 23 15 49 28 59
28 14 0 15 2 3 17 -8 9 -9 14 -2 10 6 -4 23 -3 37 3 19 7 29 6 39 -4 15 -15
52 -2 42 15 -4 5 -11 7 -16 4 -5 -4 -9 1 -9 9 0 23 14 26 43 11 22 -11 28 -11
38 1 7 9 8 14 3 13 -29 -5 -55 2 -47 14 4 6 8 18 8 26 0 17 25 28 25 12 0 -6
-4 -11 -10 -11 -5 0 -7 -7 -4 -15 5 -12 12 -8 34 15 15 17 33 30 40 30 18 0 1
-91 -21 -116 -27 -29 -23 -42 5 -15 33 31 53 151 37 217 -13 51 -9 63 14 44
10 -9 35 -10 87 -5 113 11 160 26 208 68 63 54 162 96 226 97 29 0 80 9 115
19 35 10 82 22 104 26 21 4 52 13 67 21 15 8 34 14 42 14 18 0 89 41 82 47 -3
3 -17 -3 -33 -14 -29 -20 -73 -28 -73 -13 0 4 4 10 9 12 18 6 17 68 0 68 -7 0
-9 -10 -5 -25 9 -35 -28 -82 -73 -95 -56 -15 -70 -12 -41 10 16 12 29 15 36 9
19 -16 24 2 8 33 -8 16 -12 34 -8 40 4 7 3 8 -4 4 -7 -4 -12 -17 -12 -29 0
-17 -15 -29 -65 -52 -35 -16 -64 -33 -65 -38 0 -4 13 -1 30 8 33 17 40 18 40
6 0 -8 -104 -41 -131 -41 -9 0 -5 7 10 19 15 12 20 21 13 25 -14 8 -64 -23
-56 -35 3 -5 -1 -6 -9 -3 -8 3 -38 -6 -66 -20 -58 -30 -71 -32 -71 -11 0 8 5
15 10 15 6 0 23 12 38 26 47 45 143 106 158 100 10 -4 13 2 11 24 -4 36 -17
52 -17 22 0 -11 -13 -30 -29 -41 -44 -32 -49 -25 -10 16 30 33 30 35 4 12 -16
-14 -41 -34 -55 -43 l-25 -18 25 7 25 6 -25 -21 c-14 -11 -34 -25 -44 -31 -17
-10 -18 -9 -13 22 7 35 80 115 96 105 5 -3 11 5 13 19 6 31 -7 33 -17 3 -7
-21 -7 -22 -12 -4 -3 12 2 25 13 34 14 10 15 16 7 19 -18 6 -16 24 8 96 18 54
20 75 14 165 -5 71 -4 102 4 102 6 0 11 -5 11 -11 0 -5 4 -8 9 -5 5 4 12 0 14
-6 3 -7 3 3 0 22 -6 39 -38 120 -48 120 -3 0 -1 -9 5 -19 6 -13 7 -33 1 -58
l-9 -38 -2 55 c-1 30 -2 58 -1 63 1 4 -15 30 -34 58 -19 28 -35 59 -35 69 0
10 -15 41 -34 69 -39 57 -35 64 12 24 29 -25 90 -128 206 -345 22 -40 41 -68
43 -61 3 7 -8 33 -23 58 -14 25 -24 48 -22 50 3 3 25 -14 49 -38 66 -62 128
-110 182 -140 47 -26 49 -26 75 -9 l26 17 -42 3 c-23 2 -42 7 -42 11 0 5 -18
11 -39 15 -31 5 -54 20 -110 76 -38 38 -74 70 -79 70 -13 0 -58 51 -76 87 -20
41 -20 45 2 34 26 -14 137 -51 153 -51 8 0 27 -7 43 -15 16 -8 46 -18 68 -21
38 -7 61 -29 56 -56 -2 -7 3 -12 10 -10 8 1 12 -5 10 -15 -2 -12 -13 -18 -30
-18 -15 -1 -30 -4 -34 -8 -4 -4 4 -7 17 -7 13 0 30 -9 37 -20 9 -15 22 -20 50
-18 35 1 36 1 5 5 -57 7 -55 74 4 98 20 8 39 15 44 15 14 0 11 -98 -3 -104 -7
-3 -4 -5 7 -3 11 1 21 8 21 15 1 6 2 21 3 33 0 11 5 17 11 14 5 -3 19 -1 31 5
34 18 99 81 94 90 -3 5 0 12 6 16 8 4 9 3 5 -4 -4 -7 -2 -12 4 -12 6 0 10 8 8
17 -2 12 4 18 16 18 20 0 81 97 163 258 37 73 54 82 35 20 -36 -121 -40 -145
-30 -175 l11 -31 12 29 c6 16 9 31 6 34 -11 9 -6 45 7 53 6 4 12 28 12 52 0
81 50 308 71 320 12 8 20 -64 9 -84 -5 -11 -13 -93 -16 -182 -5 -162 -5 -163
14 -139 15 19 18 30 11 48 -5 13 -9 62 -9 109 0 85 0 86 20 68 11 -10 20 -28
20 -40 0 -12 7 -41 15 -64 8 -23 10 -39 4 -36 -14 9 0 -74 20 -110 9 -16 17
-32 18 -33 1 -2 10 1 20 7 17 10 17 10 1 11 -10 0 -18 5 -18 10 0 6 7 10 16
10 8 0 12 4 9 10 -3 5 5 12 17 15 21 5 23 11 19 47 -3 39 -4 40 -16 19 -11
-21 -13 -22 -28 -6 -21 20 -21 18 3 57 24 39 26 55 5 38 -8 -7 -15 -19 -15
-26 0 -8 -8 -14 -19 -14 -18 0 -31 25 -31 63 0 11 -9 31 -19 46 -15 21 -20 47
-22 108 -1 44 2 86 6 92 3 7 9 47 11 89 5 104 16 138 40 134 15 -2 16 -1 5 7
-20 13 3 41 33 41 19 1 20 2 4 14 -17 12 -17 14 0 28 9 9 27 21 39 27 12 6 24
19 27 29 4 11 19 24 34 31 15 7 40 19 55 27 16 8 42 14 58 14 16 0 41 8 55 17
21 13 30 14 45 5 14 -9 23 -9 37 -1 11 7 31 9 47 5 l28 -7 -54 -54 -54 -55 -5
33 c-4 25 -7 28 -13 14 -4 -10 -3 -27 3 -37 7 -13 6 -21 -5 -30 -12 -10 -15
-10 -15 3 0 17 -39 68 -40 52 0 -6 5 -16 11 -22 6 -6 9 -26 7 -44 -2 -25 -8
-34 -20 -33 -13 1 -18 -5 -18 -22 0 -28 -16 -32 -23 -6 -3 9 -5 0 -6 -20 -1
-40 -21 -64 -21 -26 0 13 -5 30 -11 38 -8 11 -9 7 -4 -17 4 -18 2 -33 -3 -33
-5 0 -15 -12 -22 -27 -7 -16 -15 -23 -17 -15 -8 21 -25 13 -18 -9 4 -11 4 -37
0 -56 -5 -31 -9 -34 -31 -30 -33 6 -42 -11 -9 -19 28 -7 34 -24 8 -24 -16 -1
-17 -2 -2 -13 12 -9 14 -18 8 -34 -6 -15 -4 -27 6 -37 8 -8 15 -19 15 -25 0
-19 45 -98 76 -133 35 -40 64 -58 92 -58 10 0 29 -11 41 -24 13 -14 29 -22 36
-20 7 3 28 -2 45 -11 17 -9 38 -14 45 -11 16 6 48 -27 38 -39 -5 -4 -2 -5 5
-1 8 5 10 16 6 28 -13 41 37 40 74 -2 11 -13 12 -11 6 10 -7 25 -6 25 14 6 12
-10 19 -23 16 -27 -6 -10 9 -12 19 -3 12 12 -26 56 -44 51 -9 -3 -23 -1 -30 4
-15 10 -13 10 49 13 23 1 42 -2 42 -6 0 -4 6 -8 14 -8 7 0 19 -7 26 -15 13
-15 5 -20 -27 -16 -7 1 -13 -3 -13 -9 0 -5 6 -10 14 -10 8 0 21 -6 28 -13 7
-7 23 -13 34 -13 29 0 21 23 -20 59 l-31 28 30 -3 c19 -2 34 -11 41 -26 8 -16
13 -19 17 -10 2 8 12 -2 22 -24 11 -21 23 -38 27 -38 16 0 -47 102 -66 108
-18 5 -18 6 -2 17 15 12 15 13 0 19 -17 6 -47 -11 -40 -23 2 -3 -13 -5 -35 -3
-41 4 -55 22 -16 22 12 0 40 9 62 20 45 23 81 26 92 7 4 -8 19 -17 33 -20 24
-6 24 -5 -5 18 -16 14 -40 25 -52 25 -12 0 -26 7 -31 16 -9 17 -66 23 -97 9
-20 -8 -20 -8 -1 13 14 16 31 22 61 22 22 0 45 4 50 9 6 5 17 11 25 14 8 2 2
3 -13 1 -17 -2 -26 0 -22 6 3 6 18 10 33 11 25 1 25 1 -6 10 -28 8 -32 12 -22
24 12 15 4 20 -22 16 -5 0 -8 4 -8 10 0 11 -16 9 -52 -6 -32 -13 -19 12 15 29
24 12 27 16 12 16 -16 0 -17 2 -5 9 8 6 18 7 22 5 4 -3 8 -1 8 5 0 20 -22 22
-42 4 -12 -10 -18 -13 -15 -6 4 6 3 15 -3 18 -16 10 9 37 27 31 8 -3 12 -2 9
3 -3 4 12 15 33 23 47 19 120 9 136 -18 39 -68 74 -100 130 -123 184 -73 331
-28 412 126 43 81 75 180 132 405 124 490 134 718 37 878 -18 30 -36 67 -40
82 -6 28 -61 57 -69 35 -2 -8 -12 -7 -35 2 -33 14 -36 19 -26 45 8 21 23 20
47 -1 19 -17 20 -17 8 5 -16 29 -71 32 -71 3 0 -28 -9 -31 -64 -18 -44 10 -47
13 -44 38 3 19 0 25 -9 22 -7 -3 -13 -14 -13 -25 0 -14 -5 -18 -15 -14 -8 3
-15 1 -15 -4 0 -6 -5 -10 -11 -10 -6 0 -8 8 -5 18 6 16 5 16 -8 0 -17 -23 -51
-24 -42 -2 4 9 2 13 -5 8 -6 -4 -15 0 -20 7 -7 12 -9 12 -9 0 0 -11 -6 -9 -22
6 -46 42 -93 54 -116 31z m528 -133 c7 -9 10 -18 7 -22 -8 -7 -37 15 -37 28 0
14 16 11 30 -6z m-3210 -369 c0 -14 -4 -28 -10 -31 -5 -3 -10 3 -10 14 0 14
-5 19 -15 15 -8 -4 -15 -12 -15 -20 0 -8 -4 -14 -10 -14 -14 0 -13 16 2 40 7
11 23 20 35 20 18 0 23 -6 23 -24z m680 -15 c8 -17 18 -19 63 -14 49 5 54 3
70 -20 l17 -26 24 22 c20 18 22 25 14 42 -10 17 -7 16 17 -5 68 -62 76 -72 63
-88 -11 -13 -10 -15 6 -9 14 6 17 4 12 -8 -3 -9 -2 -13 4 -10 10 6 30 -34 30
-59 0 -7 -7 -21 -16 -32 -13 -16 -15 -16 -10 -2 3 10 1 28 -4 40 -8 21 -10 21
-14 1 -1 -5 -5 -14 -10 -22 -6 -10 -5 -12 2 -7 8 5 12 -2 12 -19 0 -22 3 -24
19 -16 25 14 29 7 21 -39 -7 -38 -50 -114 -59 -104 -3 2 1 10 7 16 15 15 16
48 1 48 -27 0 -37 26 -28 75 5 27 7 51 4 53 -3 3 -5 1 -5 -4 0 -5 -9 -10 -20
-10 -14 0 -18 5 -15 17 8 23 -20 28 -65 12 -19 -7 -48 -12 -63 -13 -41 0 -106
-37 -154 -87 -24 -24 -43 -48 -43 -52 0 -5 -6 -13 -13 -19 -10 -8 -16 -6 -26
11 -10 15 -10 22 -2 25 6 2 11 10 11 18 0 8 7 27 16 42 14 24 13 23 -13 -5
-31 -35 -49 -41 -55 -21 -3 7 -7 2 -11 -10 -4 -18 3 -32 35 -63 40 -39 41 -40
22 -61 -14 -15 -16 -22 -6 -25 6 -3 12 -10 12 -16 0 -19 -57 43 -81 88 -22 41
-22 43 -5 79 11 23 24 36 36 36 10 0 21 4 24 9 4 5 -2 8 -11 6 -10 -2 -23 -4
-29 -4 -6 -1 -16 -11 -22 -23 -6 -14 -11 -17 -11 -8 -1 25 12 36 67 55 43 16
51 22 46 38 -5 15 -3 17 7 11 22 -13 53 -13 69 1 46 39 223 72 253 47 8 -7 17
-9 20 -5 4 3 9 -2 13 -11 11 -29 24 -17 24 24 0 43 -5 47 -34 25 -13 -10 -44
-15 -90 -15 -75 0 -162 -24 -183 -50 -12 -16 -63 -22 -63 -8 0 4 5 8 12 8 6 0
9 3 5 6 -3 4 9 26 28 49 19 23 35 53 35 67 0 41 22 51 40 19z m-710 -30 c0 -5
-7 -12 -16 -15 -14 -5 -15 -4 -4 9 14 17 20 19 20 6z m2600 -169 c0 -34 -3
-43 -10 -32 -13 20 -13 93 0 85 6 -3 10 -27 10 -53z m-2820 44 c0 -2 -7 -6
-15 -10 -8 -3 -15 -1 -15 4 0 6 7 10 15 10 8 0 15 -2 15 -4z m566 -93 c-2 -16
-1 -20 1 -11 7 28 27 38 66 31 l37 -6 0 -51 c0 -38 6 -61 25 -88 32 -47 32
-58 1 -29 -26 24 -47 21 -45 -7 1 -15 2 -15 6 1 6 24 17 21 33 -8 9 -18 19
-23 32 -19 10 3 18 1 18 -5 0 -17 -31 -13 -53 7 -19 17 -20 16 -7 -7 10 -20
17 -22 46 -18 19 3 34 2 34 -4 0 -20 -69 -9 -99 17 -37 31 -39 47 -9 68 19 13
20 16 5 16 -10 0 -20 -7 -24 -16 -3 -8 -12 -13 -20 -10 -8 3 -30 -1 -50 -9
-41 -17 -89 -20 -98 -5 -10 17 5 70 20 70 21 0 45 41 45 77 0 26 4 33 20 33
15 0 19 -6 16 -27z m722 10 c-2 -9 -8 -18 -15 -20 -7 -3 -9 3 -6 16 6 25 26
28 21 4z m-139 -57 c20 -20 22 -26 9 -26 -9 0 -20 -9 -23 -20 -11 -36 -67 -69
-127 -76 -74 -9 -82 6 -28 56 47 43 98 65 136 57 13 -2 24 0 24 6 0 5 -20 8
-48 5 -55 -5 -129 -50 -151 -92 -17 -30 -27 -33 -33 -8 -7 27 11 84 24 76 7
-5 8 -3 3 6 -5 8 1 19 16 31 20 15 38 18 98 15 63 -3 77 -8 100 -30z m99 -103
c-23 -24 -58 -31 -58 -11 0 6 -13 0 -28 -15 -33 -32 -46 -34 -37 -7 4 11 2 20
-4 20 -6 0 -11 -11 -11 -25 0 -33 -43 -55 -123 -62 -91 -9 -110 -8 -142 8 -23
11 -30 21 -31 46 -1 17 -4 37 -7 45 -4 12 9 10 59 -9 113 -40 208 -27 261 36
19 22 22 23 23 8 0 -10 5 -15 10 -12 6 3 10 2 10 -3 0 -6 7 -12 15 -16 10 -3
23 10 42 41 l27 47 7 -34 c6 -28 3 -39 -13 -57z m-540 -100 c16 -13 42 -23 56
-23 15 0 39 -8 54 -17 l27 -18 -20 26 c-16 22 -26 26 -50 22 -20 -3 -35 0 -43
10 -10 12 -7 15 17 20 21 4 47 -1 84 -18 85 -39 120 -90 98 -146 -8 -22 -15
-26 -48 -25 -29 2 -39 6 -42 21 -9 48 -55 88 -114 99 -15 2 -37 12 -49 21 -26
18 -106 13 -195 -12 -46 -13 -55 -12 -82 2 -17 8 -31 20 -31 27 0 13 67 78 81
78 6 0 8 4 4 9 -3 6 6 7 23 2 26 -8 93 6 110 23 3 4 25 -13 47 -36 23 -24 56
-53 73 -65z m92 77 c0 -5 -2 -10 -4 -10 -3 0 -8 5 -11 10 -3 6 -1 10 4 10 6 0
11 -4 11 -10z m377 -106 c7 -26 23 -68 35 -93 19 -36 20 -45 9 -49 -18 -6 -61
-51 -61 -63 0 -5 5 -9 10 -9 6 0 10 5 10 11 0 18 51 58 67 52 7 -3 13 -17 13
-31 0 -25 45 -102 60 -102 4 0 12 -11 18 -25 9 -20 9 -23 -3 -18 -8 3 -12 10
-8 16 3 6 1 7 -6 3 -6 -4 -9 -16 -6 -27 5 -14 3 -17 -9 -13 -11 4 -16 1 -16
-10 0 -9 -27 -37 -61 -63 -52 -41 -60 -51 -58 -78 3 -53 0 -65 -21 -65 -11 0
-20 -4 -20 -10 0 -5 -7 -10 -16 -10 -9 0 -12 -5 -8 -12 5 -8 2 -9 -10 -5 -14
5 -17 3 -12 -8 4 -10 -1 -15 -17 -16 -12 0 -16 -3 -9 -6 20 -8 13 -25 -8 -18
-16 5 -19 3 -13 -11 5 -14 3 -15 -17 -4 -18 10 -21 17 -16 42 l6 30 -20 -23
-19 -24 -1 22 c0 12 5 25 10 28 6 4 8 10 5 15 -3 5 5 14 17 20 21 10 22 10 5
-3 -12 -10 -14 -16 -6 -19 7 -2 22 5 34 16 13 12 34 29 49 39 26 18 27 37 3
37 -8 0 -7 -4 2 -9 11 -7 7 -14 -18 -29 -18 -11 -41 -17 -52 -15 -21 6 -25 18
-9 28 12 8 42 76 36 82 -2 3 -7 -5 -11 -16 -11 -34 -24 -24 -15 12 9 29 8 30
-5 13 -8 -11 -15 -23 -15 -28 0 -4 -4 -8 -9 -8 -11 0 -3 66 12 95 10 18 9 19
-8 5 -17 -14 -18 -13 -12 3 3 9 2 17 -3 17 -6 0 -10 5 -10 11 0 7 7 8 18 4 33
-13 70 -16 77 -5 11 18 28 11 22 -10 -5 -19 -4 -19 19 -2 22 16 35 40 14 27
-5 -3 -20 -1 -32 6 -16 9 -23 9 -26 0 -9 -28 -109 5 -129 44 -19 34 -9 44 19
19 18 -15 20 -16 9 -1 -11 14 -11 17 1 17 8 0 18 -3 21 -7 4 -3 22 -8 41 -10
30 -3 34 -1 29 17 -4 16 -9 18 -19 9 -7 -6 -18 -7 -25 -3 -6 4 -21 8 -33 9
-11 1 -25 3 -30 4 -11 1 3 113 15 126 7 7 8 4 4 -6 -4 -10 -1 -20 5 -24 13 -8
21 -3 24 18 1 8 16 27 34 42 18 15 29 31 26 36 -3 5 -14 -1 -24 -13 -11 -13
-19 -18 -20 -13 0 6 6 17 13 24 10 11 8 11 -10 2 -13 -6 -23 -16 -23 -21 0 -6
-7 -10 -15 -10 -8 0 -15 -5 -15 -11 0 -5 -4 -7 -10 -4 -18 11 -11 34 10 30 11
-2 23 1 26 7 5 7 2 8 -7 3 -10 -6 -11 -5 -3 4 6 6 28 13 48 15 21 2 46 10 55
17 62 49 83 46 98 -17z m-217 -14 c0 -5 -7 -7 -15 -4 -8 4 -12 10 -9 15 6 11
24 2 24 -11z m420 -31 c0 -6 -4 -7 -10 -4 -5 3 -10 11 -10 16 0 6 5 7 10 4 6
-3 10 -11 10 -16z m-524 -186 c-12 -12 -26 11 -25 40 l1 32 14 -34 c8 -18 13
-36 10 -38z m66 35 c-6 -6 -16 -7 -23 -3 -9 6 -7 12 7 22 21 15 34 -1 16 -19z
m-567 -48 c3 -5 1 -10 -4 -10 -6 0 -11 5 -11 10 0 6 2 10 4 10 3 0 8 -4 11
-10z m2582 -46 c-3 -3 -12 -4 -19 -1 -8 3 -5 6 6 6 11 1 17 -2 13 -5z m-1517
-39 c25 -13 38 -24 29 -25 -22 0 -86 27 -94 40 -10 17 18 10 65 -15z m-520
-35 c0 -20 -36 -51 -52 -45 -27 11 -29 34 -6 66 l23 30 17 -21 c10 -12 18 -26
18 -30z m2037 31 c2 -23 -18 -33 -38 -19 -11 8 -10 9 5 4 13 -5 17 -2 13 8 -6
14 0 26 13 26 3 0 6 -9 7 -19z m53 1 c0 -16 -37 -48 -46 -39 -3 2 0 16 5 31
12 29 41 36 41 8z m-880 -41 c0 -6 -4 -13 -10 -16 -5 -3 -10 1 -10 9 0 9 5 16
10 16 6 0 10 -4 10 -9z m825 -11 c3 -5 1 -10 -4 -10 -6 0 -11 5 -11 10 0 6 2
10 4 10 3 0 8 -4 11 -10z m-297 -30 c-7 -10 -17 -16 -22 -13 -6 4 -5 8 2 11 7
2 12 10 12 18 0 9 4 12 10 9 6 -4 5 -13 -2 -25z m24 -12 c-7 -7 -12 -8 -12 -2
0 6 3 14 7 17 3 4 9 5 12 2 2 -3 -1 -11 -7 -17z m385 16 c-3 -3 -12 -4 -19 -1
-8 3 -5 6 6 6 11 1 17 -2 13 -5z m-1670 -10 c-3 -3 -12 -4 -19 -1 -8 3 -5 6 6
6 11 1 17 -2 13 -5z m1618 -4 c3 -6 -1 -13 -9 -16 -9 -3 -16 -11 -16 -16 0 -6
7 -5 16 3 13 10 17 10 25 -2 18 -29 8 -35 -39 -23 -17 5 -22 13 -20 35 2 29
29 41 43 19z m83 -21 c2 -4 10 -5 18 -2 23 9 16 -10 -12 -30 -33 -24 -58 -15
-50 18 5 19 3 23 -9 19 -8 -4 -15 -1 -15 6 0 13 63 4 68 -11z m92 1 c8 -5 11
-10 5 -10 -5 0 -17 5 -25 10 -8 5 -10 10 -5 10 6 0 17 -5 25 -10z m45 -10 c3
-5 2 -10 -4 -10 -5 0 -13 5 -16 10 -3 6 -2 10 4 10 5 0 13 -4 16 -10z m-1995
-10 c0 -5 -7 -10 -16 -10 -8 0 -12 5 -9 10 3 6 10 10 16 10 5 0 9 -4 9 -10z
m-218 -26 c-7 -36 -22 -39 -22 -5 0 22 4 31 13 28 6 -2 10 -13 9 -23z m208
-43 c0 -5 -8 -15 -17 -22 -16 -12 -17 -12 -6 2 7 9 10 19 6 22 -3 4 -1 7 5 7
7 0 12 -4 12 -9z m1935 -1 c3 -5 -1 -10 -9 -10 -9 0 -16 5 -16 10 0 6 4 10 9
10 6 0 13 -4 16 -10z m-1398 -21 c-5 -19 -4 -20 12 -5 24 22 45 21 36 -1 -4
-10 -12 -38 -17 -63 -15 -67 -18 -69 -90 -54 -35 8 -81 14 -104 14 -22 0 -49
7 -60 15 -19 15 -19 15 5 35 12 11 27 17 33 14 5 -3 33 -8 61 -10 29 -3 69 -6
90 -8 20 -2 39 0 42 4 7 12 -25 21 -48 14 -13 -4 -17 -2 -13 5 5 7 -1 10 -16
8 -13 -1 -23 3 -23 11 0 7 -7 17 -15 22 -9 6 -10 10 -3 10 6 0 18 -9 26 -20
12 -18 16 -18 33 -5 10 8 15 15 9 15 -15 1 18 20 34 20 9 0 11 -7 8 -21z
m-107 -21 c0 -5 -4 -8 -9 -8 -5 0 -16 -2 -24 -5 -7 -3 -14 0 -14 7 0 7 11 13
24 13 13 0 23 -3 23 -7z m-470 -4 c0 -4 -10 -15 -22 -26 -15 -13 -17 -19 -8
-16 9 1 15 -1 15 -7 0 -10 -45 -8 -55 2 -3 2 8 16 23 29 27 23 47 31 47 18z
m45 -5 c10 -15 -1 -23 -20 -15 -9 3 -13 10 -10 16 8 13 22 13 30 -1z m297 -21
c-7 -7 -12 -8 -12 -2 0 6 3 14 7 17 3 4 9 5 12 2 2 -3 -1 -11 -7 -17z m1132
-1 c-2 -7 -13 -18 -24 -25 -16 -10 -20 -10 -20 1 0 17 20 37 37 37 7 0 10 -6
7 -13z m26 -13 c0 -8 -5 -12 -10 -9 -6 4 -8 11 -5 16 9 14 15 11 15 -7z
m-1400 -25 c0 -5 -4 -9 -10 -9 -5 0 -10 7 -10 16 0 8 5 12 10 9 6 -3 10 -10
10 -16z m1118 -14 c7 -16 8 -25 1 -25 -5 0 -12 7 -15 15 -4 8 -10 12 -15 9 -5
-3 -6 2 -3 10 9 23 19 20 32 -9z m262 16 c0 -12 -20 -25 -27 -18 -7 7 6 27 18
27 5 0 9 -4 9 -9z m-1545 -11 c-3 -5 -10 -10 -16 -10 -5 0 -9 5 -9 10 0 6 7
10 16 10 8 0 12 -4 9 -10z m-101 -15 c11 -8 15 -15 10 -15 -6 0 -15 5 -22 12
-9 9 -12 9 -12 0 0 -7 10 -17 23 -21 19 -8 20 -10 5 -16 -24 -10 -38 2 -38 31
0 28 7 29 34 9z m396 -5 c0 -5 -7 -10 -16 -10 -8 0 -12 5 -9 10 3 6 10 10 16
10 5 0 9 -4 9 -10z m-525 -21 c8 -13 -33 -59 -52 -59 -20 0 -26 25 -13 49 11
22 54 29 65 10z m1465 1 c0 -5 -5 -10 -11 -10 -5 0 -7 5 -4 10 3 6 8 10 11 10
2 0 4 -4 4 -10z m43 -30 c7 -1 1 -7 -13 -15 -14 -8 -34 -14 -45 -14 -15 0 -13
3 9 11 22 8 25 13 15 20 -11 7 -9 8 4 4 10 -3 24 -6 30 -6z m281 -12 c-3 -4
-16 -8 -29 -8 -13 0 -27 -4 -30 -10 -3 -5 -13 -10 -22 -10 -14 0 -14 2 1 19
17 18 91 27 80 9z m-43 -41 c-13 -13 -26 -3 -16 12 3 6 11 8 17 5 6 -4 6 -10
-1 -17z m-1101 -11 c0 -2 -7 -7 -16 -10 -8 -3 -12 -2 -9 4 6 10 25 14 25 6z
m410 -106 c0 -5 -4 -10 -10 -10 -5 0 -10 5 -10 10 0 6 5 10 10 10 6 0 10 -4
10 -10z m29 -29 c17 -17 17 -18 0 -30 -25 -15 -32 -14 -26 3 3 8 1 16 -5 18
-6 2 -8 10 -4 16 10 16 13 15 35 -7z m-532 3 c-3 -3 -12 -4 -19 -1 -8 3 -5 6
6 6 11 1 17 -2 13 -5z m64 -74 c-28 -24 -24 -25 18 -4 17 8 37 13 44 11 6 -3
-13 -17 -43 -32 -78 -38 -142 -78 -110 -69 23 6 24 5 11 -10 -13 -16 -11 -16
25 1 44 20 85 48 79 54 -8 9 64 51 81 47 17 -3 10 -12 -142 -175 -44 -48 -94
-67 -94 -37 0 13 20 29 63 52 35 18 74 46 86 63 19 26 20 29 4 21 -10 -6 -27
-20 -38 -32 -20 -23 -86 -60 -105 -60 -16 0 -12 30 5 36 8 4 15 11 15 16 0 6
-6 5 -15 -2 -12 -10 -15 -7 -21 15 -8 32 -2 38 61 64 28 11 45 20 39 20 -6 1
-28 -6 -47 -14 -48 -20 -57 -19 -57 5 0 16 7 20 33 21 17 0 52 6 77 13 25 8
47 14 50 14 3 1 -6 -8 -19 -18z m-322 -4 c-2 -2 -18 -7 -34 -10 l-30 -6 30 14
c26 12 46 14 34 2z m160 -29 c13 -16 -4 -37 -30 -37 -26 0 -32 16 -13 34 19
19 28 20 43 3z m-59 -7 c0 -5 -4 -10 -10 -10 -5 0 -7 -6 -4 -14 6 -16 -24 -26
-81 -25 l-40 0 39 19 c21 11 42 17 46 15 4 -3 13 2 20 10 14 17 30 20 30 5z
m194 -35 c-25 -19 -40 -19 -24 0 7 8 20 15 28 15 13 0 12 -3 -4 -15z m-156
-52 l-36 -36 -16 31 -16 30 43 15 c59 20 69 5 25 -40z m-80 9 c7 -23 -18 -42
-47 -35 -14 3 -28 9 -31 13 -3 4 -15 10 -28 14 -37 12 -18 21 44 20 36 0 59
-5 62 -12z m101 -23 c-19 -12 -24 -2 -8 17 9 11 14 13 17 4 3 -7 -2 -16 -9
-21z m-79 -9 c0 -5 -7 -10 -16 -10 -8 0 -12 5 -9 10 3 6 10 10 16 10 5 0 9 -4
9 -10z m98 -17 c-2 -11 -21 -24 -45 -32 -34 -12 -44 -13 -57 -2 -9 8 -16 17
-16 21 0 6 52 19 113 29 5 0 7 -7 5 -16z m-688 -748 c0 -5 -55 -35 -65 -35 -3
0 -5 5 -5 10 0 6 9 10 19 10 11 0 23 5 26 10 6 10 25 14 25 5z m-125 -56 c11
-17 -1 -21 -15 -4 -8 9 -8 15 -2 15 6 0 14 -5 17 -11z m-265 -184 c-7 -8 -17
-15 -22 -15 -6 0 -5 7 2 15 7 8 17 15 22 15 6 0 5 -7 -2 -15z m-173 -112 c-9
-9 -20 -13 -24 -9 -4 4 -1 11 7 16 25 16 35 11 17 -7z"/>
<path d="M2712 4163 c-10 -4 -7 -9 8 -20 24 -17 33 -13 24 11 -6 17 -10 18
-32 9z"/>
<path d="M2580 4099 c0 -10 27 -19 34 -12 12 12 5 22 -14 20 -11 -1 -20 -4
-20 -8z"/>
<path d="M2519 3993 c-13 -16 -12 -17 4 -4 9 7 17 15 17 17 0 8 -8 3 -21 -13z"/>
<path d="M2300 3910 c0 -5 5 -10 10 -10 6 0 10 5 10 10 0 6 -4 10 -10 10 -5 0
-10 -4 -10 -10z"/>
<path d="M2250 3879 c0 -9 6 -21 13 -27 17 -14 57 3 57 25 -1 17 -1 17 -11 1
-5 -10 -16 -18 -24 -18 -8 0 -19 8 -24 18 -9 15 -10 15 -11 1z"/>
<path d="M2625 3740 c-3 -5 -1 -10 5 -10 6 0 8 -4 5 -10 -3 -5 1 -10 9 -10 20
0 21 14 2 29 -10 8 -16 9 -21 1z"/>
<path d="M2558 3653 c7 -3 16 -2 19 1 4 3 -2 6 -13 5 -11 0 -14 -3 -6 -6z"/>
<path d="M2793 3673 c-3 -10 -15 -29 -27 -43 -14 -16 -15 -20 -3 -11 15 12 17
11 17 -4 0 -13 3 -15 13 -6 8 6 17 8 20 4 4 -3 7 2 7 11 0 13 -5 16 -16 12
-14 -5 -15 -4 -4 9 7 8 9 15 5 15 -4 0 -2 7 5 15 9 11 9 15 1 15 -6 0 -14 -8
-18 -17z"/>
<path d="M2765 3660 c-3 -5 -1 -10 4 -10 6 0 11 5 11 10 0 6 -2 10 -4 10 -3 0
-8 -4 -11 -10z"/>
<path d="M2841 3626 c-7 -8 -8 -17 -3 -20 6 -3 12 3 15 14 6 24 4 25 -12 6z"/>
<path d="M2853 3394 c-20 -18 -21 -24 -11 -55 23 -72 25 -74 24 -27 0 27 -4
48 -8 48 -4 0 -5 7 -2 15 8 20 24 19 24 -1 0 -13 7 -15 36 -11 20 3 42 14 49
24 20 27 8 29 -19 4 -27 -26 -47 -24 -61 4 l-10 21 -22 -22z"/>
<path d="M2975 3381 c3 -5 -4 -13 -16 -16 -13 -4 -17 -11 -12 -16 12 -12 45
-1 37 12 -3 5 0 9 6 9 6 0 8 5 5 10 -3 6 -11 10 -16 10 -6 0 -8 -4 -4 -9z"/>
<path d="M3230 3039 c0 -5 5 -7 10 -4 6 3 10 8 10 11 0 2 -4 4 -10 4 -5 0 -10
-5 -10 -11z"/>
<path d="M2606 4665 c-3 -9 -6 -26 -5 -38 1 -14 4 -9 9 13 9 37 7 52 -4 25z"/>
<path d="M2835 4669 c-4 -6 -5 -12 -2 -15 2 -3 7 2 10 11 7 17 1 20 -8 4z"/>
<path d="M4970 4650 c0 -5 5 -10 11 -10 5 0 7 5 4 10 -3 6 -8 10 -11 10 -2 0
-4 -4 -4 -10z"/>
<path d="M4576 4625 c-3 -9 -6 -24 -5 -33 0 -9 5 -4 10 12 9 32 6 48 -5 21z"/>
<path d="M4638 4588 c-6 -18 2 -48 13 -48 5 0 6 12 3 28 -8 34 -11 37 -16 20z"/>
<path d="M2748 4583 c7 -3 16 -2 19 1 4 3 -2 6 -13 5 -11 0 -14 -3 -6 -6z"/>
<path d="M3006 4559 c-11 -54 -6 -83 19 -124 30 -49 34 -31 4 20 -18 29 -20
45 -15 85 7 55 2 68 -8 19z"/>
<path d="M2717 4573 c-12 -11 -8 -53 8 -82 19 -37 44 -47 64 -24 15 15 15 16
0 5 -28 -21 -63 16 -63 67 -1 22 -1 41 -2 41 0 0 -4 -3 -7 -7z"/>
<path d="M4821 4556 c2 -2 40 -6 84 -8 44 -3 69 -2 55 2 -25 8 -147 13 -139 6z"/>
<path d="M2825 4540 c-3 -6 0 -10 8 -10 24 0 58 -33 60 -57 1 -13 7 -23 14
-23 16 0 16 0 -3 39 -17 34 -69 68 -79 51z"/>
<path d="M4813 4533 c9 -2 23 -2 30 0 6 3 -1 5 -18 5 -16 0 -22 -2 -12 -5z"/>
<path d="M2490 4515 c0 -27 18 -45 45 -45 21 0 45 17 45 33 0 5 -7 1 -16 -8
-22 -21 -46 -15 -61 15 -11 22 -13 23 -13 5z"/>
<path d="M4948 4513 c7 -3 16 -2 19 1 4 3 -2 6 -13 5 -11 0 -14 -3 -6 -6z"/>
<path d="M4710 4480 c-25 -16 -3 -23 67 -21 80 2 97 10 27 13 l-49 1 50 7 50
7 -65 1 c-36 1 -72 -2 -80 -8z"/>
<path d="M3468 4473 c7 -3 16 -2 19 1 4 3 -2 6 -13 5 -11 0 -14 -3 -6 -6z"/>
<path d="M4893 4473 c9 -2 23 -2 30 0 6 3 -1 5 -18 5 -16 0 -22 -2 -12 -5z"/>
<path d="M4958 4463 c6 -2 18 -2 25 0 6 3 1 5 -13 5 -14 0 -19 -2 -12 -5z"/>
<path d="M5028 4453 c6 -2 18 -2 25 0 6 3 1 5 -13 5 -14 0 -19 -2 -12 -5z"/>
<path d="M2860 4435 c-10 -13 -10 -19 5 -35 23 -25 37 -25 66 1 l24 21 -25
-16 c-30 -20 -35 -20 -55 0 -12 12 -13 19 -4 30 6 8 9 14 6 14 -2 0 -10 -7
-17 -15z"/>
<path d="M3243 4443 c9 -2 23 -2 30 0 6 3 -1 5 -18 5 -16 0 -22 -2 -12 -5z"/>
<path d="M5100 4438 c19 -5 38 -15 42 -21 4 -7 8 -7 8 -2 0 6 4 5 8 -2 4 -6
21 -15 37 -18 27 -7 28 -6 15 7 -16 17 -104 49 -129 47 -9 0 0 -5 19 -11z"/>
<path d="M3174 4427 c-29 -16 -84 -64 -84 -72 0 -4 17 7 37 25 20 18 50 38 67
46 17 7 24 13 16 13 -8 0 -24 -5 -36 -12z"/>
<path d="M3320 4420 c-8 -5 -12 -12 -9 -15 4 -3 12 1 19 10 14 17 11 19 -10 5z"/>
<path d="M3640 4426 c0 -2 8 -10 18 -17 15 -13 16 -12 3 4 -13 16 -21 21 -21
13z"/>
<path d="M4634 4391 c-15 -15 23 -35 60 -31 10 1 23 -4 27 -12 7 -10 9 -10 9
0 0 8 20 13 63 14 l62 2 -80 6 -80 6 94 2 c52 1 92 4 90 7 -6 6 -239 12 -245
6z"/>
<path d="M3037 4376 c-4 -9 -18 -18 -33 -22 l-26 -7 30 -13 c17 -7 38 -24 48
-39 17 -25 17 -28 0 -58 l-18 -32 21 25 c27 33 26 52 -5 89 -22 26 -24 34 -14
46 7 9 11 18 8 21 -3 3 -8 -2 -11 -10z"/>
<path d="M4918 4373 c12 -2 32 -2 45 0 12 2 2 4 -23 4 -25 0 -35 -2 -22 -4z"/>
<path d="M4998 4363 c6 -2 18 -2 25 0 6 3 1 5 -13 5 -14 0 -19 -2 -12 -5z"/>
<path d="M4898 4353 c12 -2 30 -2 40 0 9 3 -1 5 -23 4 -22 0 -30 -2 -17 -4z"/>
<path d="M5020 4351 c-32 -6 -30 -7 25 -13 52 -5 114 -23 189 -54 13 -5 17 -4
13 3 -7 10 -129 57 -172 66 -11 2 -36 1 -55 -2z"/>
<path d="M2914 4327 c-31 -27 -35 -64 -10 -102 19 -29 37 -32 59 -7 23 26 25
56 3 60 -20 4 -44 -14 -32 -25 4 -4 11 -1 15 6 14 22 30 9 20 -16 -11 -29 -45
-30 -59 -3 -20 38 -8 73 30 92 19 10 27 18 18 18 -9 0 -29 -10 -44 -23z"/>
<path d="M4683 4323 c-10 -16 -13 -16 -22 -3 -9 13 -12 11 -17 -7 -7 -25 -20
-30 -27 -10 -3 6 -6 0 -6 -15 -1 -33 9 -59 20 -53 4 3 6 12 2 20 -3 8 -1 15 4
15 16 0 43 -36 35 -46 -4 -5 0 -3 8 4 13 11 13 14 0 22 -12 8 -12 10 3 16 9 3
28 3 41 0 14 -3 28 -2 31 4 4 6 -9 10 -32 10 -21 0 -45 5 -53 11 -11 7 6 9 60
5 81 -6 84 -2 7 9 -40 5 -46 9 -36 21 6 8 7 14 3 14 -5 0 -14 -8 -21 -17z"/>
<path d="M2700 4316 c0 -2 7 -7 16 -10 8 -3 12 -2 9 4 -6 10 -25 14 -25 6z"/>
<path d="M2377 4293 c-11 -10 -8 -33 3 -33 6 0 10 6 10 14 0 8 6 17 13 19 8 4
6 6 -4 6 -9 1 -19 -2 -22 -6z"/>
<path d="M2688 4293 c7 -3 16 -2 19 1 4 3 -2 6 -13 5 -11 0 -14 -3 -6 -6z"/>
<path d="M3139 4283 c-8 -9 -9 -14 -2 -10 6 4 13 3 15 -3 2 -6 9 -1 16 10 10
16 10 20 -2 20 -7 0 -20 -8 -27 -17z"/>
<path d="M3302 4241 c-62 -61 -70 -84 -36 -112 8 -7 11 -21 8 -35 -8 -31 11
-54 46 -54 43 0 146 72 170 119 33 66 25 88 -47 125 -55 27 -76 21 -141 -43z
m132 28 c61 -27 75 -56 49 -101 -10 -18 -26 -33 -34 -33 -8 0 -17 -7 -21 -15
-5 -10 -7 -7 -8 10 -1 23 -2 24 -14 8 -7 -10 -15 -15 -18 -12 -4 3 -9 1 -12
-5 -4 -6 2 -8 14 -6 11 2 20 0 20 -5 0 -13 -31 -41 -40 -35 -4 3 -13 -2 -20
-10 -7 -8 -19 -15 -27 -15 -10 0 -7 7 9 23 13 12 19 19 14 15 -14 -11 -28 -10
-22 1 4 5 -4 7 -15 4 -16 -4 -20 -2 -17 8 3 8 10 14 16 14 5 0 14 3 18 8 4 4
-4 7 -17 7 -28 0 -49 17 -49 39 0 15 105 121 120 121 4 0 29 -9 54 -21z m-114
-193 c0 -2 -7 -6 -15 -10 -8 -3 -15 -1 -15 4 0 6 7 10 15 10 8 0 15 -2 15 -4z"/>
<path d="M2321 4274 c0 -11 3 -14 6 -6 3 7 2 16 -1 19 -3 4 -6 -2 -5 -13z"/>
<path d="M2584 4274 c-18 -14 -18 -15 4 -4 12 6 22 13 22 15 0 8 -5 6 -26 -11z"/>
<path d="M3695 4270 c21 -24 26 -25 19 -6 -3 8 -13 17 -22 21 -13 5 -13 2 3
-15z"/>
<path d="M4853 4283 c9 -2 25 -2 35 0 9 3 1 5 -18 5 -19 0 -27 -2 -17 -5z"/>
<path d="M4933 4273 c9 -2 25 -2 35 0 9 3 1 5 -18 5 -19 0 -27 -2 -17 -5z"/>
<path d="M2392 4245 c-13 -29 -34 -32 -56 -9 -14 13 -16 13 -16 1 0 -15 20
-27 46 -27 14 0 50 47 42 55 -3 3 -10 -6 -16 -20z"/>
<path d="M4860 4254 c52 -8 128 -21 168 -30 40 -9 75 -14 78 -12 9 10 -255 58
-306 57 -19 -1 8 -7 60 -15z"/>
<path d="M5018 4263 c7 -3 16 -2 19 1 4 3 -2 6 -13 5 -11 0 -14 -3 -6 -6z"/>
<path d="M2648 4253 c12 -2 30 -2 40 0 9 3 -1 5 -23 4 -22 0 -30 -2 -17 -4z"/>
<path d="M5078 4253 c6 -2 18 -2 25 0 6 3 1 5 -13 5 -14 0 -19 -2 -12 -5z"/>
<path d="M2585 4240 c-8 -13 5 -13 25 0 13 8 13 10 -2 10 -9 0 -20 -4 -23 -10z"/>
<path d="M5164 4240 c15 -5 37 -17 48 -26 18 -17 19 -17 12 0 -7 19 -44 37
-72 35 -9 0 -4 -5 12 -9z"/>
<path d="M2045 4230 c4 -6 10 -8 15 -5 12 8 23 -14 31 -60 l6 -40 2 38 c1 48
-14 77 -40 77 -11 0 -17 -5 -14 -10z"/>
<path d="M2750 4230 c8 -5 22 -9 30 -9 10 0 8 3 -5 9 -27 12 -43 12 -25 0z"/>
<path d="M4588 4215 c-3 -14 -1 -25 3 -25 5 0 9 -9 9 -20 0 -22 15 -27 24 -7
3 6 3 2 0 -10 -3 -14 -1 -23 6 -23 7 0 14 9 17 19 4 17 12 18 81 14 93 -6 224
-25 352 -51 141 -29 160 -32 160 -24 0 10 -66 28 -150 42 -36 6 -96 17 -135
25 -81 16 -252 38 -310 40 -31 1 -39 5 -37 17 4 27 -15 30 -20 3z"/>
<path d="M2515 4220 c-8 -13 5 -13 25 0 13 8 13 10 -2 10 -9 0 -20 -4 -23 -10z"/>
<path d="M1999 4203 c-13 -16 -12 -17 4 -4 9 7 17 15 17 17 0 8 -8 3 -21 -13z"/>
<path d="M3186 4188 c-22 -30 -21 -33 15 -34 23 -1 29 2 24 14 -3 8 0 22 7 31
10 13 8 12 -8 -1 -25 -22 -41 -24 -24 -3 7 8 10 15 7 15 -3 0 -13 -10 -21 -22z"/>
<path d="M5130 4200 c8 -5 29 -9 45 -9 26 0 27 2 10 9 -11 5 -31 9 -45 9 -20
1 -22 -1 -10 -9z"/>
<path d="M2020 4181 c0 -8 -7 -23 -17 -33 -9 -10 -14 -21 -11 -24 3 -3 15 11
27 30 12 19 30 37 39 39 9 3 5 4 -10 4 -17 -1 -28 -7 -28 -16z"/>
<path d="M3155 4189 c-4 -6 -5 -12 -2 -15 2 -3 7 2 10 11 7 17 1 20 -8 4z"/>
<path d="M4627 4100 c-4 -16 -2 -18 13 -10 10 6 25 10 32 9 7 0 5 -4 -5 -7
-16 -7 -16 -9 4 -26 17 -14 21 -15 16 -3 -4 11 0 15 11 15 9 0 31 2 47 6 19 5
25 4 17 -2 -9 -6 14 -11 69 -16 46 -4 134 -18 197 -31 63 -14 118 -23 122 -20
5 3 11 1 15 -5 3 -5 21 -10 38 -10 58 1 4 20 -116 41 -270 48 -442 79 -448 79
-4 0 -9 -9 -12 -20z"/>
<path d="M2025 4080 c-3 -5 -1 -10 4 -10 6 0 11 5 11 10 0 6 -2 10 -4 10 -3 0
-8 -4 -11 -10z"/>
<path d="M1773 4055 c18 -19 23 -21 25 -8 4 16 -14 33 -35 33 -6 0 -2 -11 10
-25z"/>
<path d="M1810 4063 c0 -5 4 -14 9 -21 7 -11 9 -11 14 1 3 8 3 18 0 21 -9 8
-23 7 -23 -1z"/>
<path d="M3370 4030 c-8 -5 -11 -12 -8 -16 4 -3 14 1 23 10 18 17 9 21 -15 6z"/>
<path d="M3585 4020 c4 -6 11 -8 16 -5 14 9 11 15 -7 15 -8 0 -12 -5 -9 -10z"/>
<path d="M4635 4011 c-5 -9 71 -34 83 -28 20 12 255 -29 391 -69 93 -27 101
-28 101 -14 0 5 -17 12 -37 15 -21 4 -87 20 -148 35 -153 40 -381 75 -390 61z"/>
<path d="M1644 3958 c-3 -4 2 -8 10 -8 8 0 17 4 20 8 3 5 -2 9 -10 9 -8 0 -17
-4 -20 -9z"/>
<path d="M3893 3923 c9 -2 25 -2 35 0 9 3 1 5 -18 5 -19 0 -27 -2 -17 -5z"/>
<path d="M4680 3920 c0 -5 23 -10 51 -10 27 0 82 -5 120 -11 39 -6 73 -9 75
-6 3 3 -35 10 -83 16 -48 6 -105 14 -125 16 -22 3 -38 1 -38 -5z"/>
<path d="M3955 3910 c3 -5 8 -10 11 -10 2 0 4 5 4 10 0 6 -5 10 -11 10 -5 0
-7 -4 -4 -10z"/>
<path d="M4325 3900 c4 -6 11 -8 16 -5 14 9 11 15 -7 15 -8 0 -12 -5 -9 -10z"/>
<path d="M3506 3884 c-9 -25 -2 -26 17 -4 13 16 14 20 3 20 -8 0 -17 -7 -20
-16z"/>
<path d="M4668 3893 c6 -2 18 -2 25 0 6 3 1 5 -13 5 -14 0 -19 -2 -12 -5z"/>
<path d="M3246 3881 c-18 -7 -18 -8 4 -14 27 -7 39 -1 24 12 -5 5 -18 5 -28 2z"/>
<path d="M4778 3883 c7 -3 16 -2 19 1 4 3 -2 6 -13 5 -11 0 -14 -3 -6 -6z"/>
<path d="M4948 3883 c6 -2 18 -2 25 0 6 3 1 5 -13 5 -14 0 -19 -2 -12 -5z"/>
<path d="M3975 3870 c3 -5 8 -10 11 -10 2 0 4 5 4 10 0 6 -5 10 -11 10 -5 0
-7 -4 -4 -10z"/>
<path d="M4843 3873 c9 -2 23 -2 30 0 6 3 -1 5 -18 5 -16 0 -22 -2 -12 -5z"/>
<path d="M5069 3855 c46 -14 92 -30 102 -36 13 -6 19 -6 19 0 0 10 -110 47
-171 56 -19 3 4 -6 50 -20z"/>
<path d="M3172 3843 c-15 -16 -19 -21 -7 -12 11 9 29 21 40 27 11 6 14 12 8
12 -7 0 -25 -12 -41 -27z"/>
<path d="M4908 3863 c6 -2 18 -2 25 0 6 3 1 5 -13 5 -14 0 -19 -2 -12 -5z"/>
<path d="M4154 3818 l-29 -33 33 29 c30 28 37 36 29 36 -2 0 -16 -15 -33 -32z"/>
<path d="M4657 3825 c-18 -13 -18 -13 0 -18 10 -3 43 -8 73 -11 48 -5 51 -4
21 5 -55 17 -32 18 74 3 55 -8 104 -13 110 -11 5 2 -42 11 -105 21 -63 9 -124
19 -135 21 -11 2 -28 -2 -38 -10z"/>
<path d="M3999 3823 c-8 -2 -23 -17 -32 -33 -40 -67 -117 -101 -147 -65 -19
22 12 65 47 65 26 0 26 -1 7 -14 -10 -8 -15 -18 -11 -22 12 -12 41 22 34 40
-9 24 -41 19 -71 -10 -34 -35 -33 -60 4 -79 47 -24 58 -18 163 97 10 11 25 17
33 14 9 -3 12 -1 9 4 -6 10 -9 11 -36 3z"/>
<path d="M5115 3820 c3 -4 14 -10 25 -13 11 -3 18 -2 15 3 -3 4 -14 10 -25 13
-11 3 -18 2 -15 -3z"/>
<path d="M4803 3783 c9 -2 23 -2 30 0 6 3 -1 5 -18 5 -16 0 -22 -2 -12 -5z"/>
<path d="M4958 3783 c6 -2 18 -2 25 0 6 3 1 5 -13 5 -14 0 -19 -2 -12 -5z"/>
<path d="M4878 3773 c7 -3 16 -2 19 1 4 3 -2 6 -13 5 -11 0 -14 -3 -6 -6z"/>
<path d="M5008 3773 c6 -2 18 -2 25 0 6 3 1 5 -13 5 -14 0 -19 -2 -12 -5z"/>
<path d="M3141 3751 c-12 -21 -6 -27 16 -13 7 5 9 13 4 21 -7 11 -11 9 -20 -8z"/>
<path d="M5058 3763 c6 -2 18 -2 25 0 6 3 1 5 -13 5 -14 0 -19 -2 -12 -5z"/>
<path d="M4012 3745 c4 -27 50 -32 68 -8 12 15 12 16 0 6 -20 -18 -47 -16 -60
5 -10 15 -10 15 -8 -3z"/>
<path d="M4978 3753 c7 -3 16 -2 19 1 4 3 -2 6 -13 5 -11 0 -14 -3 -6 -6z"/>
<path d="M5110 3750 c8 -5 24 -9 35 -9 l20 0 -20 9 c-11 5 -27 9 -35 9 -13 1
-13 0 0 -9z"/>
<path d="M3100 3720 c0 -11 4 -20 9 -20 5 0 7 9 4 20 -3 11 -7 20 -9 20 -2 0
-4 -9 -4 -20z"/>
<path d="M4141 3733 c-1 -6 -4 -20 -7 -30 -5 -17 -5 -17 6 0 6 10 9 23 6 30
-3 9 -5 9 -5 0z"/>
<path d="M4646 3725 c-7 -21 6 -26 77 -30 34 -2 125 -20 202 -41 156 -41 190
-46 190 -25 0 13 -92 48 -101 38 -3 -2 16 -10 41 -17 25 -7 45 -17 45 -21 0
-5 -1 -9 -2 -9 -50 7 -337 89 -323 93 11 2 -1 5 -27 6 -26 0 -58 5 -71 10 -19
8 -27 6 -31 -4z"/>
<path d="M3215 3709 c-11 -17 1 -21 15 -4 8 9 8 15 2 15 -6 0 -14 -5 -17 -11z"/>
<path d="M5138 3713 c6 -2 18 -2 25 0 6 3 1 5 -13 5 -14 0 -19 -2 -12 -5z"/>
<path d="M4828 3703 c6 -2 18 -2 25 0 6 3 1 5 -13 5 -14 0 -19 -2 -12 -5z"/>
<path d="M4890 3690 c14 -4 34 -8 45 -8 16 0 15 2 -5 8 -14 4 -34 8 -45 8 -16
0 -15 -2 5 -8z"/>
<path d="M4968 3673 c7 -3 16 -2 19 1 4 3 -2 6 -13 5 -11 0 -14 -3 -6 -6z"/>
<path d="M4627 3634 c-3 -3 -3 -12 0 -20 3 -8 -1 -14 -8 -14 -7 0 -9 -3 -6 -7
4 -3 16 2 26 11 14 13 29 16 53 12 23 -4 27 -3 13 3 l-20 8 20 5 c11 3 -1 6
-26 7 -25 0 -48 -2 -52 -5z"/>
<path d="M4773 3623 c9 -2 23 -2 30 0 6 3 -1 5 -18 5 -16 0 -22 -2 -12 -5z"/>
<path d="M4838 3613 c7 -3 16 -2 19 1 4 3 -2 6 -13 5 -11 0 -14 -3 -6 -6z"/>
<path d="M4768 3603 c6 -2 18 -2 25 0 6 3 1 5 -13 5 -14 0 -19 -2 -12 -5z"/>
<path d="M4888 3603 c7 -3 16 -2 19 1 4 3 -2 6 -13 5 -11 0 -14 -3 -6 -6z"/>
<path d="M4818 3593 c6 -2 18 -2 25 0 6 3 1 5 -13 5 -14 0 -19 -2 -12 -5z"/>
<path d="M5000 3570 c47 -16 76 -29 65 -30 -17 0 -17 -2 -5 -10 20 -13 33 -13
25 0 -9 14 19 12 34 -2 11 -11 13 -10 9 1 -2 7 -40 24 -83 37 -120 35 -141 37
-45 4z"/>
<path d="M4905 3574 c28 -7 55 -13 60 -13 17 2 -69 27 -90 27 -11 0 3 -6 30
-14z"/>
<path d="M1590 3559 c-7 -11 -9 -28 -6 -36 4 -9 2 -21 -4 -28 -9 -11 -6 -12
12 -7 12 3 34 11 48 19 37 19 68 16 95 -11 21 -21 23 -28 14 -55 -13 -37 -53
-81 -73 -81 -8 0 -20 8 -25 19 -13 24 9 57 33 48 17 -7 23 8 6 18 -14 9 -62
-42 -58 -63 2 -9 15 -21 30 -26 33 -12 60 8 90 67 26 51 20 77 -21 101 -32 19
-37 19 -78 4 -49 -18 -61 -9 -50 32 7 26 1 25 -13 -1z"/>
<path d="M3555 3518 l-40 -41 43 33 c23 18 42 37 42 42 0 12 -2 11 -45 -34z"/>
<path d="M4051 3516 c-12 -5 -21 -18 -20 -30 1 -18 2 -18 6 -3 3 10 18 20 34
24 16 3 31 9 33 12 7 10 -29 8 -53 -3z"/>
<path d="M4577 3506 c-4 -10 -1 -13 9 -9 15 6 19 23 5 23 -5 0 -11 -7 -14 -14z"/>
<path d="M3160 3491 c0 -6 4 -13 10 -16 6 -3 7 1 4 9 -7 18 -14 21 -14 7z"/>
<path d="M3201 3484 c0 -11 3 -14 6 -6 3 7 2 16 -1 19 -3 4 -6 -2 -5 -13z"/>
<path d="M3880 3483 c0 -12 5 -25 10 -28 13 -8 13 15 0 35 -8 12 -10 11 -10
-7z"/>
<path d="M4631 3493 c0 -7 -10 -13 -22 -13 -12 0 -19 -5 -16 -12 3 -11 47 -14
130 -8 4 0 7 3 7 8 0 4 -20 6 -44 4 -36 -3 -45 -1 -49 15 -3 10 -5 12 -6 6z"/>
<path d="M2218 3473 c6 -2 18 -2 25 0 6 3 1 5 -13 5 -14 0 -19 -2 -12 -5z"/>
<path d="M3840 3470 c0 -6 7 -10 15 -10 8 0 15 2 15 4 0 2 -7 6 -15 10 -8 3
-15 1 -15 -4z"/>
<path d="M1555 3459 c-4 -6 -5 -12 -2 -15 2 -3 7 2 10 11 7 17 1 20 -8 4z"/>
<path d="M4795 3445 c114 -26 140 -33 177 -47 21 -8 41 -17 44 -21 10 -10 24
-9 24 3 0 14 -176 67 -245 74 l-60 6 60 -15z"/>
<path d="M4627 3429 c8 -8 16 -8 30 0 16 9 14 10 -11 11 -22 0 -27 -3 -19 -11z"/>
<path d="M4680 3432 c0 -4 10 -9 22 -9 18 -2 20 0 8 7 -18 12 -30 13 -30 2z"/>
<path d="M1531 3393 c-15 -51 -14 -75 4 -109 12 -24 15 -26 21 -10 4 10 2 21
-3 25 -18 11 -24 50 -14 88 6 20 9 39 6 41 -2 2 -8 -13 -14 -35z"/>
<path d="M2153 3419 c-12 -12 -7 -39 7 -39 4 0 10 11 12 25 6 27 -1 32 -19 14z"/>
<path d="M3810 3426 c0 -2 7 -7 16 -10 8 -3 12 -2 9 4 -6 10 -25 14 -25 6z"/>
<path d="M4730 3419 c0 -5 5 -7 10 -4 6 3 10 8 10 11 0 2 -4 4 -10 4 -5 0 -10
-5 -10 -11z"/>
<path d="M4784 3400 c0 -24 11 -26 20 -4 8 22 8 24 -7 24 -7 0 -13 -9 -13 -20z"/>
<path d="M4861 3401 c-7 -5 -9 -11 -4 -14 5 -3 15 -2 22 2 7 5 9 11 4 14 -5 3
-15 2 -22 -2z"/>
<path d="M4905 3380 c3 -5 10 -10 16 -10 5 0 9 5 9 10 0 6 -7 10 -16 10 -8 0
-12 -4 -9 -10z"/>
<path d="M4950 3361 c6 -12 13 -21 16 -21 3 0 2 5 -1 10 -8 13 41 13 66 0 11
-6 19 -7 19 -1 0 9 -30 19 -83 28 -26 4 -28 3 -17 -16z"/>
<path d="M2070 3325 c-7 -9 -8 -15 -2 -15 5 0 12 7 16 15 3 8 4 15 2 15 -2 0
-9 -7 -16 -15z"/>
<path d="M3725 3240 c3 -5 8 -10 11 -10 2 0 4 5 4 10 0 6 -5 10 -11 10 -5 0
-7 -4 -4 -10z"/>
<path d="M2513 3202 c-3 -9 -8 -20 -10 -25 -3 -4 -1 -7 4 -6 22 4 25 -3 9 -20
-22 -24 -12 -69 18 -81 20 -7 20 -8 -6 -15 -15 -4 -32 -4 -39 0 -7 5 -10 3 -7
-6 3 -8 15 -13 28 -11 53 8 71 23 95 74 25 53 35 102 14 65 -9 -16 -12 -16
-26 -2 -9 9 -23 14 -32 10 -9 -3 -7 2 6 12 l23 18 -36 2 c-25 1 -37 -3 -41
-15z m70 -50 c25 -27 2 -74 -33 -70 -31 4 -37 30 -16 63 20 30 28 31 49 7z"/>
<path d="M3347 3203 c-4 -3 -24 -5 -46 -5 -32 1 -45 -5 -61 -25 -11 -14 -18
-29 -15 -32 6 -5 21 13 28 33 4 13 52 -1 71 -20 15 -14 16 -13 16 7 0 17 3 19
14 10 10 -9 15 -8 19 1 5 14 -17 40 -26 31z"/>
<path d="M2479 3183 c-13 -16 -12 -17 4 -4 16 13 21 21 13 21 -2 0 -10 -8 -17
-17z"/>
<path d="M4450 3194 c0 -3 9 -17 20 -31 11 -14 20 -20 20 -12 -1 23 -40 66
-40 43z"/>
<path d="M4841 3174 c0 -11 3 -14 6 -6 3 7 2 16 -1 19 -3 4 -6 -2 -5 -13z"/>
<path d="M3782 3149 c2 -7 10 -15 17 -17 8 -3 12 1 9 9 -2 7 -10 15 -17 17 -8
3 -12 -1 -9 -9z"/>
<path d="M1198 3120 c-14 -11 -33 -38 -42 -60 l-16 -41 -23 25 c-24 26 -72 42
-82 26 -3 -6 4 -10 18 -10 13 0 36 -13 52 -30 l28 -29 -24 -10 c-13 -5 -18
-10 -11 -10 18 -1 15 -28 -5 -35 -9 -4 -21 -2 -27 4 -5 5 -17 10 -25 9 -11 0
-12 -2 -3 -6 20 -8 14 -26 -8 -20 -13 3 -20 0 -20 -9 0 -22 -18 -17 -32 9 -11
21 -16 22 -37 11 -23 -12 -23 -12 -3 -18 13 -5 19 -13 15 -22 -3 -7 0 -14 7
-14 18 0 10 -11 -49 -65 l-53 -50 -23 27 c-18 21 -25 24 -29 13 -3 -8 -12 -15
-19 -15 -29 0 -50 -38 -44 -80 4 -34 1 -46 -20 -71 -20 -23 -24 -36 -19 -62 4
-17 6 -73 6 -123 -1 -106 15 -171 72 -291 52 -109 162 -270 217 -319 43 -37
42 -36 -15 32 -65 78 -138 202 -129 218 33 62 62 96 81 96 7 0 20 12 30 28 33
54 377 331 412 332 6 0 12 5 12 10 0 6 6 10 14 10 8 0 16 6 19 13 3 9 8 9 17
1 9 -9 9 -17 0 -34 -8 -14 -8 -20 -1 -16 6 4 21 2 33 -4 21 -10 21 -10 6 3
-10 8 -18 22 -18 31 0 21 29 21 37 0 5 -13 7 -13 14 -2 7 10 12 9 26 -5 15
-15 16 -19 3 -27 -8 -5 -17 -7 -21 -4 -4 2 -21 -9 -38 -25 -17 -16 -35 -31
-39 -33 -18 -8 -152 -101 -194 -135 -237 -192 -338 -283 -338 -305 0 -12 39
19 189 148 176 152 321 259 367 270 12 3 25 12 28 20 7 18 26 18 26 0 0 -7 9
-16 20 -19 24 -6 25 1 3 25 -15 17 -15 18 18 12 27 -4 31 -3 17 6 -20 12 -24
50 -6 50 6 0 2 9 -10 20 -12 11 -27 20 -35 20 -7 0 -19 21 -26 48 -12 45 -13
46 -24 22 -8 -20 -11 -21 -14 -8 -5 21 -33 32 -33 13 0 -20 -26 -19 -34 1 -3
9 -12 14 -19 11 -8 -3 -20 -1 -28 4 -11 7 -11 9 4 9 9 0 17 5 17 10 0 6 9 10
20 10 11 0 20 7 20 16 0 8 4 13 9 9 5 -3 12 -1 15 4 8 12 -51 61 -72 61 -9 -1
-2 -7 16 -15 37 -16 42 -35 9 -35 -52 0 -366 -214 -442 -302 -12 -12 -51 -58
-89 -101 -37 -42 -66 -82 -64 -88 2 -6 24 14 48 45 24 30 64 71 87 91 24 20
41 41 37 46 -3 5 -2 8 3 7 9 -3 56 25 118 72 145 108 240 165 250 150 3 -6 17
-10 30 -10 43 0 36 -17 -22 -60 -194 -140 -241 -175 -351 -263 -120 -97 -142
-125 -128 -163 6 -17 -9 -44 -25 -44 -14 0 -66 111 -83 177 -38 146 -9 272 92
403 49 62 182 190 210 201 44 17 158 22 213 9 83 -19 144 -57 219 -136 89 -95
138 -171 172 -269 15 -44 27 -72 27 -62 1 9 5 17 11 17 15 0 60 -23 60 -30 0
-4 11 -7 25 -7 20 0 23 2 14 13 -7 9 -8 14 -1 14 6 0 20 -12 32 -27 15 -20 18
-22 11 -6 -15 30 -14 38 4 23 21 -17 18 0 -4 28 -23 26 -36 29 -26 5 5 -14 3
-15 -6 -6 -14 14 5 40 64 92 32 29 39 31 53 20 15 -12 16 -10 10 17 -9 40 12
60 40 39 29 -22 36 -18 18 11 -14 20 -15 27 -4 37 10 10 12 9 7 -4 -3 -11 4
-26 21 -40 15 -13 21 -17 15 -9 -17 19 -16 40 1 40 8 0 16 -10 18 -22 2 -12 8
-23 15 -25 9 -3 10 4 3 28 -10 33 -5 52 8 34 4 -6 18 -11 32 -13 13 -1 34 -11
45 -22 12 -11 29 -20 37 -20 9 0 24 -8 33 -17 16 -16 16 -18 -1 -31 -20 -15
-15 -15 30 4 11 4 15 -3 18 -28 2 -27 7 -33 24 -31 18 2 21 -2 17 -18 -4 -12
3 -32 15 -48 14 -19 17 -32 11 -42 -8 -12 -10 -12 -19 1 -8 13 -10 12 -10 -2
0 -10 5 -18 10 -18 6 0 8 -10 4 -24 -4 -16 -1 -25 10 -29 9 -4 16 -13 16 -21
0 -10 -6 -13 -15 -10 -12 5 -15 -2 -15 -34 0 -23 -4 -44 -10 -47 -6 -4 -7 11
-4 39 4 27 3 46 -3 46 -5 0 -8 -33 -7 -72 1 -75 -2 -98 -16 -98 -10 0 -6 42 5
61 7 12 6 12 -7 1 -14 -12 -16 -10 -11 10 4 18 0 15 -18 -12 -24 -36 -33 -70
-18 -70 5 0 9 9 9 21 0 11 4 17 10 14 5 -3 9 -17 8 -30 -1 -13 -6 -21 -11 -18
-5 3 -13 -1 -18 -8 -7 -11 -9 -9 -10 6 -1 11 -1 24 0 29 1 4 -11 -2 -27 -15
-16 -13 -28 -27 -26 -30 2 -4 -8 -10 -21 -13 -14 -4 -23 -11 -20 -16 4 -6 -6
-13 -22 -16 -18 -4 -40 -23 -62 -53 -19 -25 -27 -40 -18 -32 25 20 22 -5 -3
-26 -11 -10 -20 -22 -20 -27 0 -5 3 -7 6 -3 4 3 13 -1 22 -9 12 -13 13 -22 4
-51 -11 -37 -8 -58 8 -48 5 3 7 11 4 18 -2 7 7 24 21 37 l26 25 -10 -28 c-12
-31 -15 -74 -4 -64 3 4 8 19 9 34 2 14 10 33 20 42 15 15 16 14 9 -9 -4 -14
-7 -27 -7 -30 0 -20 3 -30 11 -30 4 0 6 11 4 24 -3 13 0 27 6 30 6 4 11 16 11
27 0 24 9 24 26 2 10 -15 10 -21 -3 -35 -13 -15 -14 -18 -2 -18 8 0 20 -9 27
-20 7 -12 17 -18 22 -15 6 4 4 12 -5 21 -16 17 -20 44 -6 44 5 0 21 -16 35
-35 31 -40 45 -43 71 -15 16 18 16 20 2 20 -9 0 -24 16 -33 35 -9 19 -20 35
-24 35 -6 0 -30 44 -30 55 0 3 5 5 10 5 6 0 10 -9 10 -20 0 -13 5 -18 15 -13
9 3 15 1 13 -3 -3 -10 40 -69 46 -63 6 7 36 68 36 74 0 3 -5 3 -11 0 -5 -4
-19 1 -30 11 -10 9 -19 12 -19 6 0 -6 10 -18 22 -26 18 -13 20 -18 9 -28 -10
-11 -16 -8 -32 11 -10 13 -19 30 -19 38 0 8 -4 11 -10 8 -6 -4 -10 7 -10 26 0
31 0 32 20 14 22 -20 26 -14 10 16 -6 11 -7 19 -1 19 5 0 16 -16 26 -36 12
-26 22 -34 37 -32 26 4 37 28 13 28 -9 0 -13 -4 -10 -10 3 -5 1 -10 -4 -10 -6
0 -11 9 -11 19 0 11 -5 21 -12 23 -14 5 -3 55 33 153 31 85 27 268 -7 296 -8
6 -14 24 -14 40 0 15 -6 32 -12 36 -22 14 -88 106 -88 122 -1 14 -2 13 -11 -1
-13 -23 -21 -23 -49 2 -13 11 -26 20 -30 20 -3 0 -11 12 -18 28 -8 18 -10 20
-6 5 4 -17 1 -23 -10 -23 -10 0 -16 9 -16 23 -1 20 -2 21 -14 5 -17 -23 -26
-23 -26 2 0 11 -4 20 -10 20 -5 0 -10 -12 -10 -26 0 -22 -2 -25 -15 -14 -8 7
-15 19 -15 26 0 8 -5 14 -11 14 -6 0 -9 -9 -6 -20 4 -16 0 -20 -17 -20 -12 0
-28 6 -34 12 -10 10 -12 8 -10 -7 6 -38 -16 -31 -39 14 -1 1 -7 0 -13 -4 -8
-5 -6 -13 6 -27 16 -16 16 -21 4 -28 -21 -14 -28 -12 -39 8 -9 14 -10 13 -11
-10 0 -18 -5 -28 -15 -28 -8 0 -15 -6 -15 -13 0 -8 -9 -22 -20 -32 -16 -14
-23 -16 -32 -7 -12 12 -48 17 -48 7 0 -5 7 -14 54 -67 17 -19 18 -21 2 -15
-10 4 -20 7 -22 7 -2 0 -4 8 -4 18 0 13 -2 14 -9 3 -12 -18 -40 -2 -60 36 -37
69 -112 173 -136 189 -36 23 -112 132 -118 169 -4 20 -5 16 -3 -13 1 -23 -1
-41 -4 -39 -3 1 -17 9 -33 16 -20 11 -29 24 -33 51 -5 30 -13 41 -40 53 -19 9
-34 21 -34 27 0 5 -4 10 -9 10 -6 0 -8 -9 -6 -20 2 -12 2 -27 -2 -35 -4 -12
-9 -10 -23 7 -17 21 -17 21 -12 -10 4 -27 1 -32 -16 -32 -27 0 -34 24 -21 72
15 58 52 92 92 84 l32 -6 -25 15 c-33 19 -43 19 -72 -5z m101 -119 c8 -5 15
-18 16 -28 0 -10 4 -24 9 -31 10 -17 -15 -15 -42 4 -29 20 -28 37 1 29 21 -6
21 -6 -3 14 -25 21 -10 30 19 12z m-474 -225 c18 -13 18 -15 2 -37 -55 -81
-72 -86 -70 -25 1 40 19 76 36 76 7 0 22 -6 32 -14z m522 -69 c-65 -37 -219
-140 -282 -188 -76 -58 -96 -69 -70 -40 49 57 345 251 380 250 6 0 -7 -10 -28
-22z m-587 -63 c0 -4 -10 -23 -22 -43 -18 -28 -23 -32 -26 -18 -4 20 23 67 38
67 6 0 10 -3 10 -6z m680 -11 c0 -5 -44 -37 -96 -73 -100 -67 -187 -138 -370
-300 -95 -84 -106 -91 -100 -65 4 17 15 38 24 49 54 60 506 396 534 396 4 0 8
-3 8 -7z m55 -23 c3 -5 -1 -10 -9 -10 -9 0 -16 5 -16 10 0 6 4 10 9 10 6 0 13
-4 16 -10z m231 -116 c18 -18 30 -23 46 -19 18 6 19 5 7 -8 -12 -13 -18 -13
-51 4 -21 11 -38 26 -38 34 0 21 9 19 36 -11z m605 -281 c-8 -15 -10 -15 -11
-2 0 17 10 32 18 25 2 -3 -1 -13 -7 -23z m-271 -273 c0 -5 -7 -10 -16 -10 -8
0 -12 5 -9 10 3 6 10 10 16 10 5 0 9 -4 9 -10z m180 -32 c22 -24 52 -79 46
-85 -9 -10 -33 11 -43 38 -7 17 -21 33 -32 36 -24 6 -29 33 -6 33 8 0 24 -10
35 -22z m-170 -2 c0 -3 -4 -8 -10 -11 -5 -3 -10 -1 -10 4 0 6 5 11 10 11 6 0
10 -2 10 -4z"/>
<path d="M4670 3126 c0 -8 4 -17 9 -20 5 -4 7 3 4 14 -6 23 -13 26 -13 6z"/>
<path d="M4378 3113 c7 -3 16 -2 19 1 4 3 -2 6 -13 5 -11 0 -14 -3 -6 -6z"/>
<path d="M1345 3069 c16 -19 33 -38 37 -43 5 -6 8 -3 8 6 0 9 -17 28 -37 43
l-38 28 30 -34z"/>
<path d="M2116 3091 c-4 -6 -2 -11 4 -11 6 0 8 -4 5 -10 -9 -14 -48 -13 -63 2
-7 7 -12 8 -12 2 0 -15 22 -34 40 -34 25 0 56 38 43 51 -8 8 -13 8 -17 0z"/>
<path d="M3955 3090 c-3 -6 1 -7 9 -4 18 7 21 14 7 14 -6 0 -13 -4 -16 -10z"/>
<path d="M4480 3059 c0 -9 7 -22 15 -29 10 -8 15 -27 14 -49 -2 -20 2 -45 8
-56 9 -15 11 -9 8 33 -1 31 -11 64 -24 84 -12 20 -21 27 -21 17z"/>
<path d="M4418 3053 c6 -2 18 -2 25 0 6 3 1 5 -13 5 -14 0 -19 -2 -12 -5z"/>
<path d="M3971 3034 c0 -11 3 -14 6 -6 3 7 2 16 -1 19 -3 4 -6 -2 -5 -13z"/>
<path d="M2381 3028 c-1 -11 -21 -28 -48 -42 -27 -13 -57 -31 -68 -40 -17 -13
-18 -15 -3 -16 9 0 19 4 23 9 9 16 115 70 115 59 0 -6 7 -5 16 3 12 10 17 10
23 0 6 -9 11 -8 22 5 12 16 12 17 -3 11 -10 -4 -18 -2 -18 4 0 7 -10 9 -24 5
-15 -4 -26 -1 -29 7 -3 7 -6 5 -6 -5z"/>
<path d="M4404 2978 c-5 -8 -2 -9 9 -5 11 4 20 -1 27 -13 6 -11 17 -20 25 -20
7 0 16 -8 18 -17 4 -16 5 -16 6 1 1 21 -42 66 -64 66 -8 0 -17 -5 -21 -12z"/>
<path d="M2789 2953 c-13 -16 -12 -17 4 -4 16 13 21 21 13 21 -2 0 -10 -8 -17
-17z"/>
<path d="M4415 2940 c3 -5 11 -10 16 -10 6 0 7 5 4 10 -3 6 -11 10 -16 10 -6
0 -7 -4 -4 -10z"/>
<path d="M830 2910 c-11 -11 -20 -32 -19 -47 l1 -28 8 29 c5 15 17 37 26 47
23 25 9 24 -16 -1z"/>
<path d="M2822 2900 c-23 -17 -42 -37 -42 -45 0 -10 15 0 40 26 33 34 44 41
69 37 16 -2 28 -1 25 4 -11 17 -52 7 -92 -22z"/>
<path d="M1720 2900 c-8 -5 -12 -12 -9 -15 4 -3 12 1 19 10 14 17 11 19 -10 5z"/>
<path d="M4514 2879 c-3 -6 -1 -16 5 -22 16 -16 14 -42 -5 -58 -9 -7 -23 -29
-32 -48 -19 -40 -58 -54 -68 -26 -5 13 -9 11 -20 -11 -17 -33 -17 -34 1 -34 9
0 12 6 8 18 -5 16 -5 16 12 0 25 -24 4 -48 -42 -48 -26 0 -36 -5 -40 -20 -6
-23 -18 -26 -30 -7 -5 8 -9 2 -13 -17 -6 -34 -30 -48 -30 -17 0 12 -4 21 -10
21 -5 0 -10 -12 -10 -26 0 -35 -23 -26 -31 12 l-6 29 -8 -33 c-10 -43 -23 -48
-71 -26 -22 10 -55 18 -74 19 -29 0 -36 4 -38 24 -2 13 1 27 8 31 6 4 -3 7
-19 7 -22 0 -28 -4 -21 -12 11 -14 3 -25 -18 -25 -9 0 -12 6 -8 16 3 8 2 12
-4 9 -22 -13 -31 7 -13 28 17 20 17 21 0 8 -19 -15 -19 -15 -33 11 -8 15 -11
15 -29 1 -16 -12 -16 -14 -3 -10 24 8 46 -30 23 -39 -23 -9 -45 3 -45 24 0 11
-6 25 -14 31 -20 17 -105 40 -111 31 -8 -13 15 -24 60 -30 33 -4 41 -9 43 -30
6 -38 22 -52 53 -46 16 3 32 0 38 -7 5 -7 22 -12 37 -12 15 1 35 -6 45 -16 10
-10 25 -16 32 -13 7 2 24 1 37 -4 l25 -9 -33 -17 c-17 -9 -32 -13 -32 -10 0 4
-8 0 -17 -8 -19 -16 -103 -40 -103 -29 0 3 7 18 14 34 l15 27 -24 -17 c-12
-10 -20 -22 -18 -28 3 -5 0 -4 -8 3 -12 11 -12 14 1 22 21 13 3 12 -21 -1 -16
-8 -18 -13 -8 -25 9 -11 8 -14 -4 -14 -8 0 -22 17 -30 38 -13 30 -16 33 -16
13 -1 -19 -5 -23 -26 -19 -14 3 -25 2 -25 -3 0 -4 12 -10 28 -12 22 -3 20 -4
-10 -6 -20 0 -40 -6 -43 -11 -4 -7 7 -9 32 -7 21 3 28 2 16 0 -13 -2 -23 -9
-23 -14 0 -11 0 -11 40 2 25 9 34 9 40 -2 12 -18 134 11 210 49 50 25 59 27
95 17 l39 -12 -48 -18 c-26 -10 -59 -28 -74 -39 -14 -11 -23 -15 -19 -8 6 8 3
10 -7 6 -9 -3 -13 -10 -10 -15 3 -5 -9 -17 -26 -27 -46 -24 -76 -49 -69 -56 3
-3 39 16 80 42 41 27 106 61 144 76 75 29 145 71 145 85 0 5 26 24 58 42 58
33 131 103 132 128 0 7 11 26 25 43 26 31 32 62 14 73 -6 4 -8 13 -5 21 6 17
0 19 -10 3z"/>
<path d="M4410 2870 c12 -8 12 -12 2 -18 -10 -7 -4 -18 22 -44 39 -39 49 -32
16 9 -11 14 -20 34 -20 44 0 12 -7 19 -17 19 -15 0 -16 -2 -3 -10z"/>
<path d="M1074 2832 c-32 -21 -88 -71 -124 -111 -36 -40 -91 -101 -122 -135
-54 -58 -88 -116 -69 -116 5 0 19 15 30 33 24 39 89 103 195 194 113 97 163
145 86 83 -36 -28 -83 -69 -105 -89 -85 -79 -90 -60 -7 25 69 71 171 142 181
125 5 -8 13 -6 27 5 14 12 15 14 3 11 -9 -3 -21 -1 -26 4 -6 6 -32 -5 -69 -29z"/>
<path d="M890 2844 c0 -8 5 -12 10 -9 6 3 10 10 10 16 0 5 -4 9 -10 9 -5 0
-10 -7 -10 -16z"/>
<path d="M1571 2844 c0 -11 3 -14 6 -6 3 7 2 16 -1 19 -3 4 -6 -2 -5 -13z"/>
<path d="M4460 2845 c7 -9 15 -13 17 -11 7 7 -7 26 -19 26 -6 0 -6 -6 2 -15z"/>
<path d="M1200 2799 c-55 -40 -89 -70 -61 -54 7 4 16 3 20 -3 4 -7 23 0 54 19
26 16 51 29 57 29 9 0 50 35 50 43 0 2 -15 4 -32 5 -24 0 -49 -11 -88 -39z
m39 -5 c-15 -18 -69 -47 -76 -41 -4 4 75 57 86 57 2 0 -2 -7 -10 -16z"/>
<path d="M1323 2773 c9 -9 20 -13 24 -9 4 4 1 11 -7 16 -25 16 -35 11 -17 -7z"/>
<path d="M4084 2755 c-1 -14 2 -22 7 -19 11 6 12 44 2 44 -5 0 -9 -11 -9 -25z"/>
<path d="M4280 2740 c0 -8 5 -22 10 -30 9 -13 10 -13 10 0 0 8 -5 22 -10 30
-9 13 -10 13 -10 0z"/>
<path d="M4313 2718 c6 -20 15 -34 19 -32 13 8 9 20 -11 45 l-19 24 11 -37z"/>
<path d="M1030 2673 c-102 -80 -270 -247 -270 -268 0 -8 4 -15 9 -15 11 0 56
60 56 75 1 6 7 9 15 7 7 -2 43 26 79 61 36 35 86 81 111 102 25 22 44 46 42
54 -2 9 2 12 12 8 9 -4 15 -1 13 5 -1 6 4 13 12 16 9 3 11 0 6 -8 -6 -9 -3 -9
14 -1 11 7 21 14 21 17 0 3 -5 2 -11 -2 -6 -3 -14 -2 -18 4 -4 7 -39 -15 -91
-55z m-7 -34 c-26 -23 -77 -68 -111 -101 -35 -33 -66 -58 -68 -55 -9 9 200
197 219 197 4 0 -13 -19 -40 -41z"/>
<path d="M4241 2724 c0 -11 3 -14 6 -6 3 7 2 16 -1 19 -3 4 -6 -2 -5 -13z"/>
<path d="M1790 2716 c0 -8 4 -17 9 -20 5 -4 7 3 4 14 -6 23 -13 26 -13 6z"/>
<path d="M3553 2708 c-15 -20 -25 -38 -20 -38 3 0 12 11 21 25 17 26 16 35 -1
13z"/>
<path d="M1750 2701 c0 -5 6 -14 14 -20 12 -10 13 -8 9 8 -5 21 -23 30 -23 12z"/>
<path d="M1721 2692 c-2 -26 20 -52 42 -51 l22 0 -21 11 c-12 5 -27 20 -32 32
-6 11 -11 15 -11 8z"/>
<path d="M3547 2660 c-10 -16 -16 -30 -14 -30 2 0 13 14 25 30 13 17 19 30 14
30 -4 0 -16 -13 -25 -30z"/>
<path d="M3670 2650 c-18 -12 -2 -12 25 0 13 6 15 9 5 9 -8 0 -22 -4 -30 -9z"/>
<path d="M3316 2588 c-26 -60 -83 -138 -152 -210 -25 -27 -44 -52 -40 -56 7
-7 65 56 131 144 50 66 109 174 95 174 -6 0 -21 -24 -34 -52z"/>
<path d="M3441 2624 c0 -11 3 -14 6 -6 3 7 2 16 -1 19 -3 4 -6 -2 -5 -13z"/>
<path d="M3688 2623 c7 -3 16 -2 19 1 4 3 -2 6 -13 5 -11 0 -14 -3 -6 -6z"/>
<path d="M3560 2590 c-6 -11 -8 -20 -6 -20 3 0 10 9 16 20 6 11 8 20 6 20 -3
0 -10 -9 -16 -20z"/>
<path d="M2650 2540 c0 -12 71 -65 125 -92 22 -11 42 -24 45 -28 5 -8 35 -14
54 -11 4 0 -28 19 -72 41 -44 22 -95 54 -112 70 -35 33 -40 35 -40 20z"/>
<path d="M1900 2536 c0 -2 8 -10 18 -17 15 -13 16 -12 3 4 -13 16 -21 21 -21
13z"/>
<path d="M1843 2522 c-8 -5 -8 -12 2 -25 12 -17 13 -16 11 7 0 15 -1 26 -1 26
0 0 -5 -4 -12 -8z"/>
<path d="M1885 2499 c11 -13 21 -26 22 -28 2 -2 3 3 3 12 0 9 -10 22 -22 28
l-23 12 20 -24z"/>
<path d="M3337 2483 c-4 -3 -7 -20 -6 -37 l1 -31 9 34 c10 33 8 47 -4 34z"/>
<path d="M1910 2444 c0 -10 5 -26 10 -34 8 -11 9 -7 4 15 -8 37 -14 45 -14 19z"/>
<path d="M3302 2448 c-13 -16 -3 -70 11 -65 6 2 12 10 15 18 3 11 1 11 -8 -1
-9 -12 -10 -7 -5 23 6 39 4 45 -13 25z"/>
<path d="M1524 2419 c-10 -11 -41 -37 -69 -57 -46 -34 -100 -77 -323 -259 -43
-35 -77 -66 -77 -70 0 -5 -4 -14 -8 -20 -18 -29 10 -8 101 75 53 48 122 105
152 127 30 22 57 42 60 46 3 3 15 11 28 18 13 7 20 17 16 23 -5 7 -2 9 8 5 9
-3 32 6 52 19 25 17 44 23 59 19 17 -5 19 -4 7 4 -12 9 -12 11 -1 11 7 0 24
11 36 24 16 18 19 27 11 37 -17 21 -32 20 -52 -2z m36 -14 c0 -4 -88 -64 -130
-89 -32 -19 11 19 63 55 50 36 67 44 67 34z"/>
<path d="M3730 2440 c0 -3 9 -23 20 -45 11 -22 20 -45 20 -53 0 -22 44 -10 48
13 3 19 2 19 -9 1 -9 -15 -13 -16 -20 -5 -5 8 -9 19 -9 24 0 6 5 3 10 -5 6 -9
10 -10 10 -3 0 6 21 16 48 22 79 19 81 19 99 30 25 14 11 13 -87 -9 l-85 -18
-22 26 c-12 15 -22 25 -23 22z"/>
<path d="M3242 2371 c-43 -51 -53 -81 -27 -81 8 0 17 12 21 28 8 37 28 76 32
63 2 -5 -2 -20 -8 -32 -7 -12 -8 -19 -2 -15 12 7 36 75 30 82 -3 2 -24 -18
-46 -45z m-12 -41 c0 -5 -5 -10 -11 -10 -5 0 -7 5 -4 10 3 6 8 10 11 10 2 0 4
-4 4 -10z"/>
<path d="M3674 2381 c0 -11 5 -17 13 -14 7 3 13 -2 13 -12 0 -9 5 -13 10 -10
6 4 3 16 -7 30 -22 30 -29 31 -29 6z"/>
<path d="M3715 2385 c4 -11 10 -28 12 -37 3 -10 10 -18 15 -18 13 0 -1 42 -19
60 -14 13 -15 13 -8 -5z"/>
<path d="M3590 2360 c-9 -6 -10 -10 -3 -10 6 0 15 5 18 10 8 12 4 12 -15 0z"/>
<path d="M3895 2360 c-3 -6 1 -7 9 -4 18 7 21 14 7 14 -6 0 -13 -4 -16 -10z"/>
<path d="M3635 2350 c-3 -5 -2 -10 4 -10 5 0 13 5 16 10 3 6 2 10 -4 10 -5 0
-13 -4 -16 -10z"/>
<path d="M3856 2324 c-4 -10 -1 -14 6 -12 15 5 23 28 10 28 -5 0 -13 -7 -16
-16z"/>
<path d="M2267 2298 c8 -46 13 -48 13 -5 0 21 -4 37 -10 37 -5 0 -7 -14 -3
-32z"/>
<path d="M2824 2287 c20 -18 24 -26 15 -30 -8 -3 -1 -6 15 -6 16 -1 38 -8 48
-18 10 -9 18 -12 18 -7 0 9 -94 76 -115 82 -5 2 3 -8 19 -21z"/>
<path d="M3067 2285 c-15 -14 -24 -25 -19 -25 5 0 19 11 32 25 30 32 23 32
-13 0z"/>
<path d="M3770 2289 c-54 -16 -75 -18 -124 -9 -66 11 -72 9 -58 -16 6 -11 11
-13 16 -5 11 17 26 13 19 -5 -5 -13 -2 -15 18 -9 13 5 59 16 103 26 43 9 83
22 89 28 6 6 9 10 7 10 -3 -1 -34 -10 -70 -20z"/>
<path d="M1488 2228 c-181 -140 -352 -287 -382 -329 -29 -42 -17 -41 32 2 26
23 86 76 135 117 48 41 85 77 82 80 -7 7 35 52 48 52 6 0 0 -12 -14 -26 -13
-15 29 15 94 66 107 85 132 110 108 110 -5 0 -51 -32 -103 -72z m62 29 c0 -8
-132 -108 -136 -104 -3 2 26 27 63 55 68 52 73 55 73 49z m-200 -160 c0 -2
-35 -33 -77 -69 -43 -36 -94 -78 -113 -94 -76 -64 -12 2 78 81 85 75 112 94
112 82z"/>
<path d="M3688 2283 c7 -3 16 -2 19 1 4 3 -2 6 -13 5 -11 0 -14 -3 -6 -6z"/>
<path d="M1930 2245 c21 -42 27 -95 10 -95 -5 0 -10 -12 -10 -26 0 -19 -4 -25
-15 -20 -17 6 -21 -9 -5 -19 12 -7 13 -35 2 -35 -5 0 -15 11 -22 25 -7 14 -15
23 -17 21 -8 -8 26 -63 42 -69 11 -5 15 1 15 23 0 47 60 94 73 58 2 -7 8 -10
12 -6 4 4 -5 19 -20 35 -21 23 -26 24 -23 9 2 -10 -2 -21 -8 -23 -7 -2 -9 14
-6 50 4 47 1 57 -22 83 l-26 29 20 -40z"/>
<path d="M3009 2263 c-13 -16 -12 -17 4 -4 16 13 21 21 13 21 -2 0 -10 -8 -17
-17z"/>
<path d="M3115 2240 c-3 -6 1 -7 9 -4 18 7 21 14 7 14 -6 0 -13 -4 -16 -10z"/>
<path d="M2044 2229 c-3 -6 -1 -16 5 -22 18 -18 13 -36 -14 -43 -30 -7 -30
-11 -8 -36 11 -12 13 -22 7 -26 -6 -4 -19 -22 -29 -39 -11 -18 -23 -33 -27
-33 -4 0 -8 -5 -8 -11 0 -8 4 -9 13 0 8 6 17 8 20 4 4 -3 10 3 13 13 4 10 18
31 31 45 23 25 23 27 7 43 -12 13 -14 20 -5 29 8 8 11 7 11 -3 0 -13 2 -13 10
0 5 8 12 11 17 7 4 -4 2 -16 -3 -25 -6 -10 -8 -26 -3 -37 4 -11 8 -15 9 -10 2
15 7 37 15 68 4 15 3 26 -2 25 -14 -5 -56 39 -48 51 3 6 4 11 1 11 -3 0 -8 -5
-12 -11z"/>
<path d="M3056 2168 c9 -83 16 -89 12 -10 -1 35 -6 66 -10 68 -4 3 -5 -23 -2
-58z"/>
<path d="M3650 2220 c-14 -4 -39 -8 -57 -9 -17 -1 -35 -6 -39 -13 -5 -8 0 -9
14 -6 13 4 22 1 22 -5 0 -8 4 -7 12 1 17 17 27 15 24 -5 -2 -12 -13 -19 -33
-21 -19 -2 -41 -15 -59 -35 -24 -27 -25 -28 -3 -9 29 25 44 29 36 8 -6 -14 71
31 138 81 l30 22 -30 0 c-16 -1 -41 -5 -55 -9z m10 -24 c0 -3 -4 -8 -10 -11
-5 -3 -10 -1 -10 4 0 6 5 11 10 11 6 0 10 -2 10 -4z"/>
<path d="M1550 2128 c-125 -94 -240 -190 -240 -199 0 -5 -5 -8 -12 -6 -7 1
-12 -2 -13 -8 -1 -16 -15 -35 -27 -35 -6 0 -5 7 3 17 9 11 3 9 -19 -6 -18 -12
-30 -26 -27 -31 3 -4 -9 -20 -26 -34 -17 -14 -27 -26 -23 -26 8 0 59 41 180
141 44 38 116 95 160 128 43 32 86 66 95 74 9 8 23 17 30 20 9 3 7 6 -6 6 -11
0 -45 -18 -75 -41z m-305 -258 c-3 -5 -11 -10 -16 -10 -6 0 -7 5 -4 10 3 6 11
10 16 10 6 0 7 -4 4 -10z"/>
<path d="M2896 2161 c5 -5 20 -12 34 -15 l25 -7 -25 15 c-28 17 -50 21 -34 7z"/>
<path d="M3010 2120 c8 -5 20 -10 25 -10 6 0 3 5 -5 10 -8 5 -19 10 -25 10 -5
0 -3 -5 5 -10z"/>
<path d="M2358 2103 c7 -3 16 -2 19 1 4 3 -2 6 -13 5 -11 0 -14 -3 -6 -6z"/>
<path d="M2327 2083 c-8 -12 9 -36 21 -32 7 3 6 10 -3 22 -7 10 -15 14 -18 10z"/>
<path d="M3035 2080 c3 -5 8 -10 11 -10 2 0 4 5 4 10 0 6 -5 10 -11 10 -5 0
-7 -4 -4 -10z"/>
<path d="M2581 2064 c0 -11 3 -14 6 -6 3 7 2 16 -1 19 -3 4 -6 -2 -5 -13z"/>
<path d="M3077 2030 c3 -30 9 -59 14 -64 13 -14 11 11 -6 69 l-14 50 6 -55z"/>
<path d="M3436 2045 c-27 -19 -55 -35 -62 -35 -6 0 -17 -7 -24 -15 -14 -17
-35 -21 -25 -5 3 5 -9 0 -28 -13 -19 -12 -34 -23 -33 -24 1 -1 22 4 47 11 42
13 189 99 189 111 0 11 -18 3 -64 -30z"/>
<path d="M1547 1985 c-53 -42 -97 -78 -97 -81 0 -3 36 24 80 58 104 81 120 92
120 82 -1 -5 -50 -47 -111 -94 -60 -47 -120 -96 -132 -109 -12 -13 27 15 86
63 59 47 123 96 142 109 33 21 40 37 19 44 -6 2 -54 -31 -107 -72z"/>
<path d="M3165 2014 l-30 -26 33 22 c17 12 32 23 32 26 0 7 -4 5 -35 -22z"/>
<path d="M1002 1997 c-43 -45 -41 -65 3 -31 20 15 33 29 30 32 -2 3 0 11 6 19
23 27 -8 12 -39 -20z"/>
<path d="M2831 2014 c0 -11 3 -14 6 -6 3 7 2 16 -1 19 -3 4 -6 -2 -5 -13z"/>
<path d="M3207 2014 c-16 -9 -26 -18 -23 -21 3 -3 20 4 38 16 38 24 27 28 -15
5z"/>
<path d="M2585 2010 c3 -5 8 -10 11 -10 2 0 4 5 4 10 0 6 -5 10 -11 10 -5 0
-7 -4 -4 -10z"/>
<path d="M2632 1995 c0 -16 2 -22 5 -12 2 9 2 23 0 30 -3 6 -5 -1 -5 -18z"/>
<path d="M2698 1989 c-14 -20 -17 -21 -17 -6 -1 9 -5 17 -11 17 -5 0 -7 -7 -4
-15 4 -8 3 -23 0 -32 -6 -15 -9 -15 -17 -3 -9 13 -10 12 -5 -2 3 -10 -2 -22
-12 -27 -9 -6 -12 -11 -6 -11 6 0 17 7 24 15 7 8 18 15 24 15 15 1 48 48 44
62 -2 6 -11 0 -20 -13z"/>
<path d="M1660 1934 c-25 -20 -69 -51 -97 -70 -29 -19 -53 -37 -53 -41 0 -4 5
-2 12 5 19 19 32 14 17 -5 -8 -10 4 -3 26 15 22 18 66 51 97 75 53 39 69 57
51 57 -5 0 -28 -16 -53 -36z"/>
<path d="M3185 1943 c-18 -16 -22 -24 -12 -20 10 4 23 7 28 7 6 0 7 5 3 11 -4
8 1 9 17 4 17 -4 20 -3 10 3 -11 8 -11 10 0 15 11 4 11 6 -1 6 -8 0 -28 -12
-45 -26z"/>
<path d="M3027 1941 c-35 -23 -43 -31 -29 -31 6 0 24 11 39 25 33 28 29 31
-10 6z"/>
<path d="M2796 1923 c1 -14 5 -28 9 -31 8 -9 25 20 18 31 -3 5 0 13 7 17 8 5
3 8 -12 8 -21 0 -24 -5 -22 -25z"/>
<path d="M3093 1921 c-15 -12 -40 -19 -76 -20 -30 0 -65 -6 -78 -11 -38 -17
119 -3 166 14 22 8 34 15 27 15 -7 1 -10 6 -7 11 10 16 -8 11 -32 -9z"/>
<path d="M2671 1904 c5 -7 19 -10 30 -7 33 9 30 19 -6 19 -25 0 -32 -3 -24
-12z"/>
<path d="M1389 1862 c-92 -75 -153 -132 -147 -137 3 -3 25 14 49 38 24 23 69
64 99 90 65 55 65 62 -1 9z"/>
<path d="M1690 1860 c-19 -16 -30 -29 -24 -30 5 0 23 14 39 30 37 38 29 39
-15 0z"/>
<path d="M2644 1874 c-18 -14 -18 -15 4 -4 12 6 22 13 22 15 0 8 -5 6 -26 -11z"/>
<path d="M1745 1871 c-3 -6 -60 -48 -128 -95 -186 -130 -306 -236 -268 -236 6
0 11 6 11 14 0 8 30 38 68 68 87 70 288 208 302 208 6 0 8 5 5 11 -4 6 2 13
14 16 12 3 21 9 21 14 0 12 -17 11 -25 0z"/>
<path d="M1179 1843 c-13 -16 -12 -17 4 -4 9 7 17 15 17 17 0 8 -8 3 -21 -13z"/>
<path d="M1354 1798 l-19 -23 23 19 c21 18 27 26 19 26 -2 0 -12 -10 -23 -22z"/>
<path d="M1470 1800 c-20 -16 -21 -19 -5 -13 l20 6 -20 -23 -20 -24 32 23 c18
12 35 27 39 34 5 9 3 8 -7 0 -18 -18 -34 -16 -19 2 17 20 10 19 -20 -5z"/>
<path d="M2150 1806 c0 -9 5 -16 10 -16 6 0 10 4 10 9 0 6 -4 13 -10 16 -5 3
-10 -1 -10 -9z"/>
<path d="M2110 1783 c0 -23 15 -39 23 -26 3 5 -1 17 -9 28 -14 18 -14 18 -14
-2z"/>
<path d="M1751 1776 c-7 -8 -73 -60 -146 -116 -74 -56 -138 -106 -141 -112
-11 -17 10 -3 126 87 159 123 189 144 166 117 -11 -12 -81 -71 -157 -130 -76
-59 -136 -108 -134 -110 8 -8 331 255 327 266 -5 16 -27 15 -41 -2z"/>
<path d="M1300 1755 c-13 -14 -22 -27 -19 -29 2 -2 14 10 27 25 29 36 24 38
-8 4z"/>
<path d="M1353 1714 c-37 -31 -70 -60 -72 -66 -2 -6 27 15 65 47 86 72 89 75
82 75 -4 0 -37 -25 -75 -56z"/>
<path d="M2031 1753 c-1 -24 14 -39 24 -23 3 5 2 10 -4 10 -5 0 -12 8 -14 18
-4 13 -5 12 -6 -5z"/>
<path d="M1400 1717 c-19 -17 -55 -49 -80 -69 -25 -21 -40 -38 -35 -37 10 0
165 138 155 138 -3 0 -21 -14 -40 -32z"/>
<path d="M1849 1694 c-13 -14 -22 -28 -21 -31 2 -2 0 -8 -4 -11 -4 -4 -4 -1 0
6 14 23 -5 12 -97 -61 -50 -41 -125 -97 -164 -126 -40 -29 -73 -56 -73 -61 0
-11 42 1 58 17 8 7 35 27 60 45 26 17 75 54 110 81 37 29 68 47 77 43 10 -4
15 1 15 15 0 12 8 23 20 26 11 3 20 12 20 20 0 7 7 25 16 38 21 32 14 32 -17
-1z m-45 -62 c-34 -32 -192 -150 -216 -162 -16 -8 -14 -4 7 12 16 13 70 55
120 95 49 40 94 72 99 73 6 0 1 -8 -10 -18z"/>
<path d="M1925 1643 c-5 -10 -7 -21 -7 -25 2 -9 -176 -136 -301 -215 -49 -32
-84 -59 -78 -61 7 -2 65 31 129 74 64 44 122 81 127 83 6 2 12 7 15 10 14 18
108 80 113 75 3 -3 12 8 21 24 13 25 13 32 2 41 -11 9 -15 7 -21 -6z m25 -7
c0 -3 -4 -8 -10 -11 -5 -3 -10 -1 -10 4 0 6 5 11 10 11 6 0 10 -2 10 -4z"/>
<path d="M1190 1645 c0 -11 272 -288 313 -318 21 -15 52 -30 70 -32 27 -5 25
-3 -13 12 -34 14 -85 58 -207 181 -90 90 -163 161 -163 157z"/>
<path d="M1881 1634 c0 -11 3 -14 6 -6 3 7 2 16 -1 19 -3 4 -6 -2 -5 -13z"/>
<path d="M1842 1610 c0 -14 2 -19 5 -12 2 6 2 18 0 25 -3 6 -5 1 -5 -13z"/>
<path d="M1862 1510 c0 -14 2 -19 5 -12 2 6 2 18 0 25 -3 6 -5 1 -5 -13z"/>
<path d="M1795 1469 c-4 -6 -5 -12 -2 -15 2 -3 7 2 10 11 7 17 1 20 -8 4z"/>
<path d="M1910 1390 c0 -5 5 -10 10 -10 6 0 10 5 10 10 0 6 -4 10 -10 10 -5 0
-10 -4 -10 -10z"/>
<path d="M1898 1335 c-14 -14 -122 -45 -179 -51 -92 -9 -88 -17 6 -11 57 3 97
12 138 31 31 14 57 28 57 31 0 7 -15 6 -22 0z"/>
</g>
</svg>
